<svg id="DAT" xmlns="http://www.w3.org/2000/svg" width="95.77" height="106.363" viewBox="0 0 95.77 106.363">
  <path id="Shape_Copy_158" data-name="Shape Copy 158" d="M81.769,106.363H0V0H56.216L81.769,25.324Z" transform="translate(14)" fill="#11907c"/>
  <path id="Shape_Copy_157" data-name="Shape Copy 157" d="M24.275,24.058H0V0Z" transform="translate(68 4)" fill="#37d2ba"/>
  <rect id="Rectangle_5_Copy_126" data-name="Rectangle 5 Copy 126" width="55" height="28" rx="4" transform="translate(0 16)" fill="#0d6254"/>
  <path id="DAT-2" data-name="DAT" d="M12.069,12.087H9.421L13.92,0h2.308l4.523,12.085H18.1L17.266,9.6H12.9l-.83,2.49Zm3.005-9.032-1.5,4.524h3.022L15.074,3.055h0Zm10.774,9.032h-2.49V2.017H19.705V0H29.55V2.017h-3.7V12.085Zm-22.1,0H0V0H3.719A5.669,5.669,0,0,1,6.57.718,5.023,5.023,0,0,1,8.533,2.76a6.319,6.319,0,0,1,.706,3.009v.556a6.343,6.343,0,0,1-.693,3,4.983,4.983,0,0,1-1.955,2.033A5.71,5.71,0,0,1,3.744,12.086ZM2.49,2.017v8.068h1.2A2.714,2.714,0,0,0,5.926,9.13,4.33,4.33,0,0,0,6.715,6.4V5.761a4.4,4.4,0,0,0-.763-2.794,2.707,2.707,0,0,0-2.233-.95Z" transform="translate(13.079 23.914)" fill="#37d2ba"/>
  <path id="_copy_2" data-name=" copy 2" d="M29.672,29.953h0l-5.694-5.694,9.351-9.281L23.977,5.625,29.672,0,44.648,14.977,29.673,29.952Zm-14.7,0h0L0,14.977,14.977,0l5.7,5.625L11.32,14.977l9.352,9.281-5.694,5.694Z" transform="translate(33 57)" fill="#37d2ba"/>
</svg>
