<svg id="Indesign" xmlns="http://www.w3.org/2000/svg" width="95.77" height="106.363" viewBox="0 0 95.77 106.363">
  <path id="Shape_Copy_213" data-name="Shape Copy 213" d="M81.769,106.363H0V0H56.216L81.769,25.324Z" transform="translate(14)" fill="#8b194d"/>
  <path id="Shape_Copy_212" data-name="Shape Copy 212" d="M24.275,24.058H0V0Z" transform="translate(68 4)" fill="#ff2c8e"/>
  <rect id="Rectangle_5_Copy_176" data-name="Rectangle 5 Copy 176" width="55" height="28" rx="4" transform="translate(0 16)" fill="#5e1034"/>
  <path id="IND" d="M7.285,12.8H4.649V0H7.285l5.142,8.437V0h2.628V12.8H12.417L7.285,4.377V12.8Zm13.6,0H16.925V0h3.938a6.005,6.005,0,0,1,3.019.76,5.332,5.332,0,0,1,2.079,2.162,6.7,6.7,0,0,1,.747,3.186V6.7a6.717,6.717,0,0,1-.734,3.173A5.275,5.275,0,0,1,23.9,12.023,6.055,6.055,0,0,1,20.889,12.8ZM19.562,2.136v8.543h1.274A2.874,2.874,0,0,0,23.2,9.668a4.587,4.587,0,0,0,.835-2.892V6.1a4.663,4.663,0,0,0-.808-2.957,2.867,2.867,0,0,0-2.364-1.006ZM2.637,12.8H0V0H2.637V12.8Z" transform="translate(14.31 24.203)" fill="#ff2f8f"/>
  <path id="_" data-name="" d="M20.357,37.008h0a10.129,10.129,0,0,0-2.227-1.3,18.006,18.006,0,0,0-2.536-.861,18.542,18.542,0,0,0-2.7-.488,26.009,26.009,0,0,0-2.715-.147,20.59,20.59,0,0,0-4.472.554A19.521,19.521,0,0,0,1.4,36.228a.387.387,0,0,0-.244.065.387.387,0,0,1-.244.065.874.874,0,0,1-.618-.292A.874.874,0,0,1,0,35.447V8.325a10.268,10.268,0,0,1,2.211-1.3,16.036,16.036,0,0,1,2.52-.846,22.16,22.16,0,0,1,2.7-.488,23.707,23.707,0,0,1,2.749-.162,23.427,23.427,0,0,1,2.715.162,22.137,22.137,0,0,1,2.7.488,16.588,16.588,0,0,1,2.536.846,10.09,10.09,0,0,1,2.228,1.3V33.3a13.6,13.6,0,0,1,2.179-1.106,20.736,20.736,0,0,1,2.65-.878c.911-.236,1.841-.433,2.765-.585a15.978,15.978,0,0,1,2.585-.228,24.085,24.085,0,0,1,3.3.228,19.134,19.134,0,0,1,3.171.715V6.472a18.012,18.012,0,0,1,1.951.8,10.093,10.093,0,0,1,1.723,1.057V35.317a.9.9,0,0,1-.276.617.855.855,0,0,1-.635.293,1.409,1.409,0,0,0-.228.016.242.242,0,0,1-.04,0,.426.426,0,0,1-.188-.053,15.812,15.812,0,0,0-4.227-1.512,22.514,22.514,0,0,0-4.553-.472,17.291,17.291,0,0,0-2.585.211,25.339,25.339,0,0,0-2.765.586,24.755,24.755,0,0,0-2.65.877,11.434,11.434,0,0,0-2.178,1.122Zm3.676-8.325V8.325L33.3,0V20.357l-9.267,8.324Z" transform="translate(35 53)" fill="#ff2c8e"/>
</svg>
