<svg id="Log" xmlns="http://www.w3.org/2000/svg" width="95.77" height="106.363" viewBox="0 0 95.77 106.363">
  <path id="Shape_Copy_3" data-name="Shape Copy 3" d="M81.769,106.363H0V0H56.216L81.769,25.324Z" transform="translate(14)" fill="#1c5da4"/>
  <path id="Shape_Copy_2" data-name="Shape Copy 2" d="M24.275,24.058H0V0Z" transform="translate(67.785 3.508)" fill="#7bb6f6"/>
  <rect id="Rectangle_5_Copy_192" data-name="Rectangle 5 Copy 192" width="55" height="28" rx="4" transform="translate(0 16)" fill="#2c7acd"/>
  <text id="LOG-2" data-name="LOG" transform="translate(9 20)" fill="#7bb6f6" font-size="17" font-family="Roboto-Bold, Roboto" font-weight="700" letter-spacing="-0.025em"><tspan x="0" y="18">LOG</tspan></text>
  <path id="_" data-name="" d="M28.3,0l2.32,8.684-1.9.527q-.668-1.3-1.371-2.5A6.967,6.967,0,0,0,25.84,4.852a3.259,3.259,0,0,0-1.705-.773,15.483,15.483,0,0,0-1.811-.105H17.332V25a13.957,13.957,0,0,0,.07,1.424,1.494,1.494,0,0,0,.563,1.072,3,3,0,0,0,1.441.422q.914.07,1.9.07v2H9.316v-2q1.02,0,1.916-.07a2.967,2.967,0,0,0,1.424-.422,1.554,1.554,0,0,0,.58-1.072A11.193,11.193,0,0,0,13.324,25V3.973H8.332A15.936,15.936,0,0,0,6.5,4.078a3.27,3.27,0,0,0-1.723.773A7.39,7.39,0,0,0,3.3,6.715q-.7,1.2-1.371,2.5L0,8.684,2.32,0Z" transform="translate(40 58)" fill="#7bb6f6"/>
</svg>
