<svg id="Microsoft_READ_ONLY" data-name="Microsoft READ ONLY" xmlns="http://www.w3.org/2000/svg" width="95.77" height="106.363" viewBox="0 0 95.77 106.363">
  <path id="Shape_Copy_3" data-name="Shape Copy 3" d="M81.769,106.363H0V0H56.216L81.769,25.324Z" transform="translate(14)" fill="#1c5da4"/>
  <path id="Shape_Copy_2" data-name="Shape Copy 2" d="M24.275,24.058H0V0Z" transform="translate(67.785 3.508)" fill="#7bb6f6"/>
  <rect id="Rectangle_5_Copy_4" data-name="Rectangle 5 Copy 4" width="55" height="28" rx="4" transform="translate(0 16)" fill="#2c7acd"/>
  <path id="Read" d="M32.718,13.675a3.243,3.243,0,0,1-2.694-1.322,5.943,5.943,0,0,1-1.015-3.678,5.759,5.759,0,0,1,1-3.542,3.252,3.252,0,0,1,2.73-1.319,2.921,2.921,0,0,1,2.293,1.038V0h2.549V13.5H35.285l-.123-1.011A3,3,0,0,1,32.718,13.675Zm.668-7.8c-1.219,0-1.837,1-1.837,2.98a3.759,3.759,0,0,0,.466,2.047,1.525,1.525,0,0,0,1.354.712,1.706,1.706,0,0,0,1.66-.993V6.873A1.681,1.681,0,0,0,33.386,5.88Zm-10.344,7.8a3.393,3.393,0,0,1-2.316-.808,2.613,2.613,0,0,1-.918-2.039,2.7,2.7,0,0,1,1.12-2.32,5.549,5.549,0,0,1,3.238-.817h1.169V7.145A1.572,1.572,0,0,0,25,6.091a1.334,1.334,0,0,0-1.067-.4A1.519,1.519,0,0,0,22.924,6a1.048,1.048,0,0,0-.365.843h-2.54a2.561,2.561,0,0,1,.51-1.529,3.377,3.377,0,0,1,1.441-1.1,5.264,5.264,0,0,1,2.092-.4,4.167,4.167,0,0,1,2.791.884,3.1,3.1,0,0,1,1.032,2.483V11.3a4.577,4.577,0,0,0,.378,2.047V13.5H25.7a2.823,2.823,0,0,1-.255-.852A3.091,3.091,0,0,1,23.042,13.675Zm1.345-4.5c-1.266,0-1.949.444-2.03,1.318l-.009.149a1.022,1.022,0,0,0,.334.782,1.3,1.3,0,0,0,.914.308,2.2,2.2,0,0,0,1.037-.25,1.654,1.654,0,0,0,.7-.672V9.175Zm-9.122,4.5a4.692,4.692,0,0,1-3.406-1.283,4.583,4.583,0,0,1-1.314-3.419V8.727A5.768,5.768,0,0,1,11.1,6.166a4.085,4.085,0,0,1,1.57-1.741,4.427,4.427,0,0,1,2.316-.611,3.964,3.964,0,0,1,3.072,1.23,5.024,5.024,0,0,1,1.12,3.489V9.571H13.121a2.371,2.371,0,0,0,.743,1.494,2.254,2.254,0,0,0,1.569.563,2.753,2.753,0,0,0,2.294-1.064l1.248,1.4a3.836,3.836,0,0,1-1.547,1.261A5.093,5.093,0,0,1,15.265,13.675Zm-.29-7.8a1.6,1.6,0,0,0-1.226.51,2.647,2.647,0,0,0-.6,1.459h3.533v-.2a1.888,1.888,0,0,0-.457-1.3A1.65,1.65,0,0,0,14.975,5.871ZM2.637,13.5H0V.7H4.755a5.4,5.4,0,0,1,3.5,1.011A3.5,3.5,0,0,1,9.483,4.57a3.956,3.956,0,0,1-.567,2.184A3.882,3.882,0,0,1,7.2,8.148l2.768,5.229V13.5H7.137l-2.4-4.685h-2.1V13.5Zm0-10.662V6.68H4.764A2.186,2.186,0,0,0,6.3,6.174a1.812,1.812,0,0,0,.544-1.393,1.944,1.944,0,0,0-.514-1.424,2.147,2.147,0,0,0-1.578-.518Z" transform="translate(8.143 23.5)" fill="#7bb6f6"/>
  <path id="Path_Copy_6" data-name="Path Copy 6" d="M0,3.9H2.6V27.307h8.452l6.5-11.568V27.307h7.8L37.059,3.9h2.6V0h-11.7V3.9h1.95l-4.551,8.967V0h-9.1l-7.8,14.683V3.9h2.6V0H0Z" transform="translate(35 60)" fill="#7bb6f6"/>
</svg>
