<svg id="POT" xmlns="http://www.w3.org/2000/svg" width="95.77" height="106.363" viewBox="0 0 95.77 106.363">
  <path id="Shape_Copy_278" data-name="Shape Copy 278" d="M81.769,106.363H0V0H56.216L81.769,25.324Z" transform="translate(14)" fill="#e6541d"/>
  <path id="Shape_Copy_277" data-name="Shape Copy 277" d="M24.275,24.058H0V0Z" transform="translate(68 4)" fill="#ffa684"/>
  <rect id="Rectangle_5_Copy_230" data-name="Rectangle 5 Copy 230" width="55" height="28" rx="4" transform="translate(0 16)" fill="#ba3c0d"/>
  <text id="POT-2" data-name="POT" transform="translate(9 20)" fill="#ffa684" font-size="18" font-family="Roboto-Bold, Roboto" font-weight="700" letter-spacing="-0.024em"><tspan x="0" y="19">POT</tspan></text>
  <path id="_copy_2" data-name=" copy 2" d="M16,36a15.9,15.9,0,0,1-4.043-.509,15.71,15.71,0,0,1-3.639-1.46,16.7,16.7,0,0,1-3.146-2.267,17.031,17.031,0,0,1-2.531-2.9L15.645,21.34,23.1,34.313a15.505,15.505,0,0,1-3.392,1.248A15.778,15.778,0,0,1,16,36Zm8.86-2.672h0L17.156,20H31.992a15.719,15.719,0,0,1-.51,4.008,16.55,16.55,0,0,1-1.441,3.656,15.446,15.446,0,0,1-2.25,3.146,16.794,16.794,0,0,1-2.935,2.513Zm-23.2-6.223h0a14.852,14.852,0,0,1-1.23-3.391A16.339,16.339,0,0,1,0,20,15.872,15.872,0,0,1,4.675,8.666a16.607,16.607,0,0,1,5.08-3.428A15.5,15.5,0,0,1,16,3.973V18.843L1.653,27.1ZM36,16H20V0a15.723,15.723,0,0,1,6.223,1.248,15.928,15.928,0,0,1,5.08,3.427,16.607,16.607,0,0,1,3.428,5.081A15.5,15.5,0,0,1,36,15.995Z" transform="translate(37 54)" fill="#ffa684"/>
</svg>
