<svg id="Premiere" xmlns="http://www.w3.org/2000/svg" width="95.77" height="106.363" viewBox="0 0 95.77 106.363">
  <path id="Shape_Copy_118" data-name="Shape Copy 118" d="M81.769,106.363H0V0H56.216L81.769,25.324Z" transform="translate(14)" fill="#51295a"/>
  <path id="Shape_Copy_117" data-name="Shape Copy 117" d="M24.275,24.058H0V0Z" transform="translate(68 4)" fill="#eb7aff"/>
  <rect id="Rectangle_5_Copy_94" data-name="Rectangle 5 Copy 94" width="55" height="28" rx="4" transform="translate(0 16)" fill="#2c0050"/>
  <path id="PREM" d="M32.643,12.087h-2.49V0h3.254l3.1,8.766L39.6,0H42.87V12.085h-2.5v-3.3l.249-5.7-3.263,9.006h-1.71l-3.254-9,.248,5.694v3.3Zm-19.6,0h-2.49V0h4.491a5.1,5.1,0,0,1,3.3.955,3.307,3.307,0,0,1,1.162,2.7,3.733,3.733,0,0,1-.536,2.063,3.663,3.663,0,0,1-1.623,1.316L19.97,11.97v.115H17.3L15.032,7.662H13.047v4.424Zm0-10.07V5.645h2.009a2.063,2.063,0,0,0,1.453-.478,1.709,1.709,0,0,0,.515-1.315,1.838,1.838,0,0,0-.485-1.345,2.031,2.031,0,0,0-1.49-.49ZM29.1,12.086H21V0h8.085V2.017H23.489V4.9H28.27v1.95H23.489v3.237H29.1v2Zm-26.609,0H0V0H4.715A5.482,5.482,0,0,1,7.11.5,3.687,3.687,0,0,1,8.7,1.913,3.962,3.962,0,0,1,9.256,4,3.485,3.485,0,0,1,8.04,6.8,5.086,5.086,0,0,1,4.674,7.827H2.49v4.258Zm0-10.069V5.81H4.715a2.2,2.2,0,0,0,1.507-.464A1.7,1.7,0,0,0,6.74,4.018a2,2,0,0,0-.523-1.436,1.966,1.966,0,0,0-1.444-.564Z" transform="translate(6.079 23.914)" fill="#e171fb"/>
  <path id="_" data-name="" d="M27.984,9V2A1.953,1.953,0,0,0,27.4.6,1.907,1.907,0,0,0,25.98,0H2A1.907,1.907,0,0,0,.58.6,1.953,1.953,0,0,0,0,2v20a1.936,1.936,0,0,0,.58,1.424A1.936,1.936,0,0,0,2,24.012H25.98a1.981,1.981,0,0,0,2-2v-7L36,23.027V1.02Z" transform="translate(39 60)" fill="#e171fb"/>
</svg>
