<svg id="SQL_File" data-name="SQL File" xmlns="http://www.w3.org/2000/svg" width="95.77" height="106.363" viewBox="0 0 95.77 106.363">
  <path id="Shape_Copy_243" data-name="Shape Copy 243" d="M81.769,106.363H0V0H56.216L81.769,25.324Z" transform="translate(14)" fill="#a63a3d"/>
  <path id="Shape_Copy_242" data-name="Shape Copy 242" d="M24.275,24.058H0V0Z" transform="translate(68 4)" fill="#eb6d71"/>
  <rect id="Rectangle_5_Copy_202" data-name="Rectangle 5 Copy 202" width="55" height="28" rx="4" transform="translate(0 16)" fill="#5c1c1e"/>
  <path id="SQL" d="M18.793,14.41h0L16.22,12.343a5.511,5.511,0,0,1-.913.075,5.05,5.05,0,0,1-2.681-.723A4.816,4.816,0,0,1,10.8,9.633a7.112,7.112,0,0,1-.656-3.083v-.6a7.283,7.283,0,0,1,.644-3.142A4.816,4.816,0,0,1,12.6.726,5.023,5.023,0,0,1,15.29,0a5.022,5.022,0,0,1,2.685.726A4.809,4.809,0,0,1,19.793,2.81a7.263,7.263,0,0,1,.644,3.134v.539a7.317,7.317,0,0,1-.548,2.943,5.069,5.069,0,0,1-1.519,2l2.009,1.578-1.584,1.4ZM15.29,2.058a2.228,2.228,0,0,0-1.934.976,5.046,5.046,0,0,0-.689,2.859v.59a5.173,5.173,0,0,0,.68,2.872,2.223,2.223,0,0,0,1.959,1.022,2.2,2.2,0,0,0,1.926-.984,5.145,5.145,0,0,0,.68-2.868V5.935a5.113,5.113,0,0,0-.68-2.889A2.226,2.226,0,0,0,15.29,2.058Zm-10.4,10.36a6.2,6.2,0,0,1-2.54-.51A4.04,4.04,0,0,1,.6,10.508,3.593,3.593,0,0,1,0,8.45H2.5a1.852,1.852,0,0,0,.6,1.5,2.746,2.746,0,0,0,1.79.5,2.34,2.34,0,0,0,1.387-.361,1.181,1.181,0,0,0,.5-1.009A1.284,1.284,0,0,0,6.276,8a6.6,6.6,0,0,0-1.794-.8,12.69,12.69,0,0,1-2.05-.826,3.363,3.363,0,0,1-2.058-3A2.933,2.933,0,0,1,.925,1.631,3.614,3.614,0,0,1,2.511.432,5.994,5.994,0,0,1,4.831,0,5.461,5.461,0,0,1,7.139.469,3.7,3.7,0,0,1,8.712,1.793a3.483,3.483,0,0,1,.56,1.942H6.781a1.634,1.634,0,0,0-.523-1.291A2.158,2.158,0,0,0,4.79,1.984,2.306,2.306,0,0,0,3.37,2.37a1.223,1.223,0,0,0-.507,1.017,1.174,1.174,0,0,0,.593.988A6.776,6.776,0,0,0,5.2,5.122,7.576,7.576,0,0,1,8.3,6.707a3.173,3.173,0,0,1,.971,2.358,2.919,2.919,0,0,1-1.187,2.461A5.219,5.219,0,0,1,4.889,12.418Zm24.719-.167H21.83V.166h2.49V10.252h5.288v2Z" transform="translate(12.573 23.748)" fill="#eb6d71"/>
  <path id="_" data-name="" d="M31.008,43.98h0a10.35,10.35,0,0,1-3.585-1.617A12.873,12.873,0,0,1,24.556,39.6a12.7,12.7,0,0,1-2.549-7.611V25.98l9-3.973,9,3.973v6.012a12.259,12.259,0,0,1-.686,4.043,12.873,12.873,0,0,1-4.746,6.328,10.173,10.173,0,0,1-3.568,1.617Zm0-18.105-5.027,2.25v5.308a6.913,6.913,0,0,0,1.442,4.236,6.309,6.309,0,0,0,3.586,2.443ZM22.922,43.98H2A1.944,1.944,0,0,1,.581,43.4,1.9,1.9,0,0,1,0,42.012V34a1.961,1.961,0,0,1,.58-1.406A1.912,1.912,0,0,1,2,31.992H18a16.715,16.715,0,0,0,.4,3.322,19.7,19.7,0,0,0,1,3.164,18.317,18.317,0,0,0,1.53,2.918,19.612,19.612,0,0,0,1.985,2.582ZM11.988,36v4.008h2V36Zm-7.98,0v4.008H7.98V36ZM18,27.985H2A1.941,1.941,0,0,1,.581,27.4,1.941,1.941,0,0,1,0,25.98V18a1.944,1.944,0,0,1,.58-1.424A1.941,1.941,0,0,1,2,16H34a1.962,1.962,0,0,1,1.407.58A1.915,1.915,0,0,1,36,18v1.336l-4.992-2.215L18,22.887v5.1ZM11.988,20v4.008h2V20Zm-7.98,0v4.008H7.98V20ZM34,11.988H2a1.944,1.944,0,0,1-1.424-.58A1.944,1.944,0,0,1,0,9.985V2A1.941,1.941,0,0,1,.581.581,1.941,1.941,0,0,1,2,0H34A1.962,1.962,0,0,1,35.4.581,1.912,1.912,0,0,1,36,2v7.98a1.915,1.915,0,0,1-.6,1.424A1.965,1.965,0,0,1,34,11.988ZM11.988,4.008V7.98h2V4.008Zm-7.98,0V7.98H7.98V4.008Z" transform="translate(35 50)" fill="#eb6d71"/>
</svg>
