<svg id="VST" xmlns="http://www.w3.org/2000/svg" width="95.77" height="106.363" viewBox="0 0 95.77 106.363">
  <path id="Shape_Copy_246" data-name="Shape Copy 246" d="M24.275,24.058H0V0Z" transform="translate(68 4)" fill="#7bb6f6"/>
  <rect id="Rectangle_5_Copy_205" data-name="Rectangle 5 Copy 205" width="55" height="28" rx="4" transform="translate(0 16)" fill="#2c7acd"/>
  <text id="DOC_Copy_145" data-name="DOC Copy 145" transform="translate(9 20)" fill="#7bb6f6" font-size="18" font-family="Roboto-Bold, Roboto" font-weight="700" letter-spacing="-0.024em"><tspan x="0" y="19">DO</tspan><tspan y="19" letter-spacing="-0.029em">C</tspan></text>
  <path id="Path_Copy_157" data-name="Path Copy 157" d="M0,2.917H1.945V20.423H8.266l4.862-8.651v8.651h5.835L27.717,2.917h1.945V0H20.909V2.917h1.459l-3.4,6.706V0H12.156L6.321,10.981V2.917H8.266V0H0Z" transform="translate(40 65)" fill="#76b1f1"/>
  <path id="Shape_Copy_245" data-name="Shape Copy 245" d="M24.275,24.058H0V0Z" transform="translate(68 4)" fill="#7bb6f6"/>
  <rect id="Rectangle_5_Copy_204" data-name="Rectangle 5 Copy 204" width="55" height="28" rx="4" transform="translate(0 16)" fill="#2c7acd"/>
  <text id="DOC_Copy_144" data-name="DOC Copy 144" transform="translate(9 20)" fill="#7bb6f6" font-size="18" font-family="Roboto-Bold, Roboto" font-weight="700" letter-spacing="-0.024em"><tspan x="0" y="19">DO</tspan><tspan y="19" letter-spacing="-0.029em">C</tspan></text>
  <path id="Path_Copy_156" data-name="Path Copy 156" d="M0,3.9H2.6V27.307h8.452l6.5-11.568V27.307h7.8L37.059,3.9h2.6V0h-11.7V3.9h1.95l-4.551,8.967V0h-9.1l-7.8,14.683V3.9h2.6V0H0Z" transform="translate(35 60)" fill="#fff"/>
  <path id="Shape_Copy_244" data-name="Shape Copy 244" d="M24.275,24.058H0V0Z" transform="translate(68 4)" fill="#7bb6f6"/>
  <rect id="Rectangle_5_Copy_203" data-name="Rectangle 5 Copy 203" width="55" height="28" rx="4" transform="translate(0 16)" fill="#2c7acd"/>
  <text id="DOC_Copy_143" data-name="DOC Copy 143" transform="translate(9 20)" fill="#7bb6f6" font-size="18" font-family="Roboto-Bold, Roboto" font-weight="700" letter-spacing="-0.024em"><tspan x="0" y="19">DO</tspan><tspan y="19" letter-spacing="-0.029em">C</tspan></text>
  <path id="Path_Copy_155" data-name="Path Copy 155" d="M0,2.917H1.945V20.423H8.266l4.862-8.651v8.651h5.835L27.717,2.917h1.945V0H20.909V2.917h1.459l-3.4,6.706V0H12.156L6.321,10.981V2.917H8.266V0H0Z" transform="translate(40 65)" fill="#76b1f1"/>
  <path id="Shape_Copy_243" data-name="Shape Copy 243" d="M81.769,106.363H0V0H56.216L81.769,25.324Z" transform="translate(14)" fill="#b9b8a2"/>
  <path id="Shape_Copy_242" data-name="Shape Copy 242" d="M24.275,24.058H0V0Z" transform="translate(68 4)" fill="#e2e0c1"/>
  <rect id="Rectangle_5_Copy_202" data-name="Rectangle 5 Copy 202" width="55" height="28" rx="4" transform="translate(0 16)" fill="#7e7f72"/>
  <path id="VST-2" data-name="VST" d="M16.087,12.418a6.2,6.2,0,0,1-2.54-.51,4.045,4.045,0,0,1-1.748-1.4,3.592,3.592,0,0,1-.6-2.058h2.5a1.852,1.852,0,0,0,.6,1.5,2.746,2.746,0,0,0,1.79.5,2.339,2.339,0,0,0,1.386-.361,1.181,1.181,0,0,0,.5-1.009A1.284,1.284,0,0,0,17.473,8a6.6,6.6,0,0,0-1.793-.8,12.652,12.652,0,0,1-2.05-.826,3.363,3.363,0,0,1-2.058-3,2.933,2.933,0,0,1,.552-1.748,3.614,3.614,0,0,1,1.586-1.2A5.985,5.985,0,0,1,16.028,0a5.461,5.461,0,0,1,2.308.469,3.694,3.694,0,0,1,1.573,1.324,3.483,3.483,0,0,1,.561,1.942h-2.49a1.636,1.636,0,0,0-.523-1.291,2.163,2.163,0,0,0-1.47-.461,2.306,2.306,0,0,0-1.419.386,1.223,1.223,0,0,0-.506,1.017,1.172,1.172,0,0,0,.593.988,6.781,6.781,0,0,0,1.747.747,7.583,7.583,0,0,1,3.1,1.585,3.173,3.173,0,0,1,.971,2.358,2.921,2.921,0,0,1-1.187,2.461A5.219,5.219,0,0,1,16.087,12.418Zm11.031-.167h-2.49V2.183H20.975V.166h9.845V2.183h-3.7V12.251Zm-20.328,0h-2.6L0,.166H2.764l2.722,9.09L8.226.166H11L6.79,12.251Z" transform="translate(12.058 23.748)" fill="#e2e0c1"/>
  <rect id="Rectangle-path" width="11" height="11" transform="translate(36 81)" fill="#e2e0c1"/>
  <path id="Shape" d="M6.444,14.122.328,7.992a1.06,1.06,0,0,1,0-1.533L6.444.328a1.054,1.054,0,0,1,1.529,0L14.09,6.459a1.06,1.06,0,0,1,0,1.533L7.973,14.122A1.054,1.054,0,0,1,6.444,14.122Z" transform="translate(60.558 54.027)" fill="#e2e0c1"/>
  <ellipse id="Oval" cx="6.553" cy="6.568" rx="6.553" ry="6.568" transform="translate(35 54.684)" fill="#e2e0c1"/>
  <ellipse id="Oval-2" data-name="Oval" cx="6.553" cy="6.568" rx="6.553" ry="6.568" transform="translate(61.213 79.863)" fill="#e2e0c1"/>
  <rect id="Rectangle-path-2" data-name="Rectangle-path" width="2.318" height="5.455" transform="translate(40.318 73.273)" fill="#e2e0c1"/>
  <path id="Shape-2" data-name="Shape" d="M3.476,0,0,4.364H6.953Z" transform="translate(38 70)" fill="#e2e0c1"/>
  <rect id="Rectangle-path-3" data-name="Rectangle-path" width="5.418" height="2.333" transform="translate(50 60.333)" fill="#e2e0c1"/>
  <path id="Shape-3" data-name="Shape" d="M4.334,3.5,0,0V7Z" transform="translate(54.334 58)" fill="#e2e0c1"/>
  <rect id="Rectangle-path-4" data-name="Rectangle-path" width="2.318" height="5.455" transform="translate(66.318 70)" fill="#e2e0c1"/>
  <path id="Shape-4" data-name="Shape" d="M3.476,4.364,6.953,0H0Z" transform="translate(64 74.364)" fill="#e2e0c1"/>
</svg>
