<svg id="CSV" xmlns="http://www.w3.org/2000/svg" width="95.77" height="106.363" viewBox="0 0 95.77 106.363">
  <path id="Shape_Copy_32" data-name="Shape Copy 32" d="M81.769,106.363H0V0H56.216L81.769,25.324Z" transform="translate(14)" fill="#79a92e"/>
  <path id="Shape_Copy_31" data-name="Shape Copy 31" d="M24.275,24.058H0V0Z" transform="translate(68 3)" fill="#99cd48"/>
  <rect id="Rectangle_5_Copy_23" data-name="Rectangle 5 Copy 23" width="55" height="28" rx="4" transform="translate(0 16)" fill="#658c28"/>
  <path id="CSV_Copy_2" data-name="CSV Copy 2" d="M16.373,13.148a6.566,6.566,0,0,1-2.689-.54,4.277,4.277,0,0,1-1.85-1.481,3.807,3.807,0,0,1-.637-2.18h2.645a1.961,1.961,0,0,0,.636,1.587,2.909,2.909,0,0,0,1.9.532,2.476,2.476,0,0,0,1.468-.383,1.249,1.249,0,0,0,.527-1.067,1.36,1.36,0,0,0-.527-1.148,6.939,6.939,0,0,0-1.9-.843,13.578,13.578,0,0,1-2.171-.875,3.561,3.561,0,0,1-2.18-3.173,3.1,3.1,0,0,1,.585-1.85A3.825,3.825,0,0,1,13.855.457,6.345,6.345,0,0,1,16.312,0a5.772,5.772,0,0,1,2.443.5A3.913,3.913,0,0,1,20.42,1.9a3.691,3.691,0,0,1,.593,2.057H18.376a1.732,1.732,0,0,0-.554-1.367A2.286,2.286,0,0,0,16.267,2.1a2.441,2.441,0,0,0-1.5.409,1.3,1.3,0,0,0-.536,1.076,1.239,1.239,0,0,0,.628,1.046,7.115,7.115,0,0,0,1.85.791A8.035,8.035,0,0,1,19.985,7.1a3.358,3.358,0,0,1,1.028,2.5A3.093,3.093,0,0,1,19.757,12.2,5.532,5.532,0,0,1,16.373,13.148Zm-11.091,0A4.837,4.837,0,0,1,1.41,11.492,6.826,6.826,0,0,1,0,6.944V6.161A7.707,7.707,0,0,1,.651,2.909,4.895,4.895,0,0,1,2.509.751,5.227,5.227,0,0,1,5.317,0,5.241,5.241,0,0,1,8.886,1.186,4.886,4.886,0,0,1,10.45,4.518H7.814a2.69,2.69,0,0,0-.69-1.8,2.567,2.567,0,0,0-1.806-.558,2.249,2.249,0,0,0-1.973.945,5.321,5.321,0,0,0-.672,2.931V7A5.688,5.688,0,0,0,3.3,10.037,2.206,2.206,0,0,0,5.282,11a2.617,2.617,0,0,0,1.824-.558A2.537,2.537,0,0,0,7.8,8.71h2.637a4.549,4.549,0,0,1-1.526,3.252A5.376,5.376,0,0,1,5.282,13.148Zm23.192-.175H25.723L21.284.175h2.927L27.094,9.8l2.9-9.625H32.93l-4.456,12.8Z" transform="translate(10.756 24.027)" fill="#99cd48"/>
  <path id="_copy_2" data-name=" copy 2" d="M35.563,0H21.375V7.125h3.5l-7.062,5.938L10.688,7.125H14.25V0H0V7.125H3.563L14.25,16,3.563,24.875H0V32H14.25V24.875H10.688l7.125-5.937,7.063,5.938h-3.5V32H35.563V24.875H32L21.375,16,32,7.125h3.563Z" transform="translate(38 57)" fill="#99cd48"/>
</svg>
