<svg id="Fuse" xmlns="http://www.w3.org/2000/svg" width="95.77" height="106.363" viewBox="0 0 95.77 106.363">
  <path id="Shape_Copy_213" data-name="Shape Copy 213" d="M81.769,106.363H0V0H56.216L81.769,25.324Z" transform="translate(14)" fill="#462a04"/>
  <path id="Shape_Copy_212" data-name="Shape Copy 212" d="M24.275,24.058H0V0Z" transform="translate(68 4)" fill="#ff990f"/>
  <rect id="Rectangle_5_Copy_176" data-name="Rectangle 5 Copy 176" width="55" height="28" rx="4" transform="translate(0 16)" fill="#0b0601"/>
  <path id="FS" d="M14.07,13.148a6.566,6.566,0,0,1-2.689-.54,4.281,4.281,0,0,1-1.85-1.481,3.807,3.807,0,0,1-.637-2.18h2.646a1.961,1.961,0,0,0,.636,1.587,2.907,2.907,0,0,0,1.9.532,2.472,2.472,0,0,0,1.468-.383,1.247,1.247,0,0,0,.527-1.067,1.358,1.358,0,0,0-.527-1.148,6.927,6.927,0,0,0-1.9-.843,13.509,13.509,0,0,1-2.171-.875,3.56,3.56,0,0,1-2.18-3.173,3.1,3.1,0,0,1,.584-1.85A3.828,3.828,0,0,1,11.552.457,6.345,6.345,0,0,1,14.009,0a5.78,5.78,0,0,1,2.443.5,3.909,3.909,0,0,1,1.665,1.4,3.684,3.684,0,0,1,.594,2.057H16.074a1.732,1.732,0,0,0-.554-1.367A2.291,2.291,0,0,0,13.964,2.1a2.441,2.441,0,0,0-1.5.409,1.3,1.3,0,0,0-.536,1.076,1.238,1.238,0,0,0,.629,1.046,7.092,7.092,0,0,0,1.85.791A8.035,8.035,0,0,1,17.682,7.1a3.356,3.356,0,0,1,1.029,2.5A3.093,3.093,0,0,1,17.454,12.2,5.532,5.532,0,0,1,14.07,13.148ZM2.637,12.973H0V.175H8.332V2.311h-5.7v3.3H7.7V7.744H2.637v5.228Z" transform="translate(18.143 24.027)" fill="#ff990c"/>
  <path id="_" data-name="" d="M5.977,40.008A5.761,5.761,0,0,1,1.741,38.25,5.85,5.85,0,0,1,0,34,5.918,5.918,0,0,1,1.107,30.48a5.745,5.745,0,0,1,2.866-2.145v-16.7A5.746,5.746,0,0,1,1.107,9.492,5.918,5.918,0,0,1,0,5.977,5.808,5.808,0,0,1,1.741,1.758,5.761,5.761,0,0,1,5.977,0,5.819,5.819,0,0,1,10.23,1.758a5.779,5.779,0,0,1,1.758,4.219,5.849,5.849,0,0,1-1.125,3.515A5.833,5.833,0,0,1,7.98,11.637V22.218a12.129,12.129,0,0,1,3.288-1.581A15.507,15.507,0,0,1,16,20c2.66,0,4.552-.527,5.625-1.565a7.867,7.867,0,0,0,2.074-2.9,6.088,6.088,0,0,1-2.672-2.163,5.763,5.763,0,0,1-1.055-3.392,5.762,5.762,0,0,1,1.759-4.236,6.068,6.068,0,0,1,8.508,0,5.761,5.761,0,0,1,1.758,4.236,5.951,5.951,0,0,1-1.178,3.6,5.6,5.6,0,0,1-3.006,2.127,18.744,18.744,0,0,1-.72,2.5,8.566,8.566,0,0,1-1.617,2.725A9,9,0,0,1,22.553,23.1,10.459,10.459,0,0,1,18,23.977c-3.359,0-5.743.532-7.084,1.581a8.152,8.152,0,0,0-2.584,2.919,6.134,6.134,0,0,1,2.636,2.179A5.761,5.761,0,0,1,11.988,34,5.82,5.82,0,0,1,10.23,38.25,5.819,5.819,0,0,1,5.977,40.008Zm0-8.015a1.965,1.965,0,0,0-1.407.58,1.975,1.975,0,0,0,0,2.831,1.975,1.975,0,0,0,2.831,0,1.995,1.995,0,0,0-1.424-3.41Zm20-24.012a2.041,2.041,0,0,0-2,2,1.915,1.915,0,0,0,.6,1.424,2,2,0,0,0,2.83-2.83A1.915,1.915,0,0,0,25.98,7.98Zm-20-3.973a1.962,1.962,0,0,0-1.407.581,1.873,1.873,0,0,0-.6,1.389A1.915,1.915,0,0,0,4.57,7.4,2.018,2.018,0,0,0,7.4,7.4a1.947,1.947,0,0,0,.58-1.424A1.9,1.9,0,0,0,7.4,4.588,1.944,1.944,0,0,0,5.977,4.008Z" transform="translate(40 53)" fill="#ff990c"/>
</svg>
