<svg id="MDB_File" data-name="MDB File" xmlns="http://www.w3.org/2000/svg" width="95.77" height="106.363" viewBox="0 0 95.77 106.363">
  <path id="Shape_Copy_243" data-name="Shape Copy 243" d="M81.769,106.363H0V0H56.216L81.769,25.324Z" transform="translate(14)" fill="#a63a3d"/>
  <path id="Shape_Copy_242" data-name="Shape Copy 242" d="M24.275,24.058H0V0Z" transform="translate(68 4)" fill="#eb6d71"/>
  <rect id="Rectangle_5_Copy_202" data-name="Rectangle 5 Copy 202" width="55" height="28" rx="4" transform="translate(0 16)" fill="#5c1c1e"/>
  <path id="MDB" d="M2.49,12.087H0V0H3.254L6.359,8.766,9.446,0h3.271V12.085h-2.5v-3.3l.248-5.7L7.205,12.086H5.5l-3.254-9L2.49,8.782v3.3Zm27.283,0h-4.7V0h4.234a5.588,5.588,0,0,1,3.337.842,2.893,2.893,0,0,1,1.137,2.47,2.748,2.748,0,0,1-.456,1.565,2.652,2.652,0,0,1-1.27.992,2.564,2.564,0,0,1,1.465.938,2.789,2.789,0,0,1,.535,1.726,3.2,3.2,0,0,1-1.112,2.64A5.03,5.03,0,0,1,29.774,12.086ZM27.566,6.823v3.263H29.7a2.067,2.067,0,0,0,1.374-.419,1.441,1.441,0,0,0,.494-1.157,1.523,1.523,0,0,0-1.719-1.686Zm0-4.806V5.063h1.843c1.25-.022,1.884-.528,1.884-1.5a1.4,1.4,0,0,0-.477-1.184,2.526,2.526,0,0,0-1.507-.361ZM18.2,12.086H14.459V0h3.719a5.669,5.669,0,0,1,2.851.718A5.031,5.031,0,0,1,22.993,2.76,6.329,6.329,0,0,1,23.7,5.769v.556a6.342,6.342,0,0,1-.694,3,4.983,4.983,0,0,1-1.955,2.033A5.71,5.71,0,0,1,18.2,12.086ZM16.95,2.017v8.069h1.2a2.715,2.715,0,0,0,2.234-.955A4.341,4.341,0,0,0,21.175,6.4V5.761a4.4,4.4,0,0,0-.764-2.794,2.707,2.707,0,0,0-2.233-.95Z" transform="translate(11.079 23.914)" fill="#eb6d71"/>
  <path id="_" data-name="" d="M31.008,43.98h0a10.35,10.35,0,0,1-3.585-1.617A12.873,12.873,0,0,1,24.556,39.6a12.7,12.7,0,0,1-2.549-7.611V25.98l9-3.973,9,3.973v6.012a12.259,12.259,0,0,1-.686,4.043,12.873,12.873,0,0,1-4.746,6.328,10.173,10.173,0,0,1-3.568,1.617Zm0-18.105-5.027,2.25v5.308a6.913,6.913,0,0,0,1.442,4.236,6.309,6.309,0,0,0,3.586,2.443ZM22.922,43.98H2A1.944,1.944,0,0,1,.581,43.4,1.9,1.9,0,0,1,0,42.012V34a1.961,1.961,0,0,1,.58-1.406A1.912,1.912,0,0,1,2,31.992H18a16.715,16.715,0,0,0,.4,3.322,19.7,19.7,0,0,0,1,3.164,18.317,18.317,0,0,0,1.53,2.918,19.612,19.612,0,0,0,1.985,2.582ZM11.988,36v4.008h2V36Zm-7.98,0v4.008H7.98V36ZM18,27.985H2A1.941,1.941,0,0,1,.581,27.4,1.941,1.941,0,0,1,0,25.98V18a1.944,1.944,0,0,1,.58-1.424A1.941,1.941,0,0,1,2,16H34a1.962,1.962,0,0,1,1.407.58A1.915,1.915,0,0,1,36,18v1.336l-4.992-2.215L18,22.887v5.1ZM11.988,20v4.008h2V20Zm-7.98,0v4.008H7.98V20ZM34,11.988H2a1.944,1.944,0,0,1-1.424-.58A1.944,1.944,0,0,1,0,9.985V2A1.941,1.941,0,0,1,.581.581,1.941,1.941,0,0,1,2,0H34A1.962,1.962,0,0,1,35.4.581,1.912,1.912,0,0,1,36,2v7.98a1.915,1.915,0,0,1-.6,1.424A1.965,1.965,0,0,1,34,11.988ZM11.988,4.008V7.98h2V4.008Zm-7.98,0V7.98H7.98V4.008Z" transform="translate(35 50)" fill="#eb6d71"/>
</svg>
