<svg id="Microsoft_Word" data-name="Microsoft Word" xmlns="http://www.w3.org/2000/svg" width="95.77" height="106.363" viewBox="0 0 95.77 106.363">
  <path id="Shape_Copy_3" data-name="Shape Copy 3" d="M81.769,106.363H0V0H56.216L81.769,25.324Z" transform="translate(14)" fill="#1c5da4"/>
  <path id="Shape_Copy_2" data-name="Shape Copy 2" d="M24.275,24.058H0V0Z" transform="translate(67.785 3.508)" fill="#7bb6f6"/>
  <rect id="Rectangle_5_Copy_6" data-name="Rectangle 5 Copy 6" width="55" height="28" rx="4" transform="translate(0 16)" fill="#2c7acd"/>
  <path id="DOC_Copy_2" data-name="DOC Copy 2" d="M28.157,13.148a4.837,4.837,0,0,1-3.872-1.656,6.826,6.826,0,0,1-1.41-4.549V6.161a7.707,7.707,0,0,1,.651-3.253A4.895,4.895,0,0,1,25.385.751,5.227,5.227,0,0,1,28.192,0a5.241,5.241,0,0,1,3.569,1.186,4.886,4.886,0,0,1,1.564,3.332H30.689A2.69,2.69,0,0,0,30,2.72a2.567,2.567,0,0,0-1.806-.558,2.249,2.249,0,0,0-1.973.945,5.321,5.321,0,0,0-.672,2.931V7a5.688,5.688,0,0,0,.628,3.032A2.206,2.206,0,0,0,28.157,11a2.616,2.616,0,0,0,1.823-.558,2.533,2.533,0,0,0,.69-1.727h2.637a4.549,4.549,0,0,1-1.526,3.252A5.376,5.376,0,0,1,28.157,13.148Zm-11.811,0a5.354,5.354,0,0,1-2.84-.764A5.112,5.112,0,0,1,11.574,10.2a7.541,7.541,0,0,1-.695-3.265V6.3a7.723,7.723,0,0,1,.681-3.326A5.1,5.1,0,0,1,13.486.769,5.322,5.322,0,0,1,16.329,0a5.322,5.322,0,0,1,2.843.769A5.1,5.1,0,0,1,21.1,2.975a7.7,7.7,0,0,1,.681,3.317v.571a7.773,7.773,0,0,1-.668,3.314,5.058,5.058,0,0,1-1.912,2.2A5.315,5.315,0,0,1,16.347,13.148ZM16.329,2.18a2.359,2.359,0,0,0-2.047,1.032,5.353,5.353,0,0,0-.73,3.029v.624a5.478,5.478,0,0,0,.721,3.041,2.352,2.352,0,0,0,2.075,1.081,2.33,2.33,0,0,0,2.038-1.041,5.448,5.448,0,0,0,.721-3.037V6.284a5.409,5.409,0,0,0-.721-3.058A2.358,2.358,0,0,0,16.329,2.18ZM3.964,12.973H0V.175H3.937a6.005,6.005,0,0,1,3.019.76A5.32,5.32,0,0,1,9.035,3.1a6.706,6.706,0,0,1,.747,3.186v.589a6.725,6.725,0,0,1-.733,3.173A5.288,5.288,0,0,1,6.979,12.2,6.053,6.053,0,0,1,3.964,12.973ZM2.637,2.311v8.544H3.911A2.876,2.876,0,0,0,6.276,9.843,4.587,4.587,0,0,0,7.11,6.952V6.276A4.66,4.66,0,0,0,6.3,3.318,2.865,2.865,0,0,0,3.937,2.311Z" transform="translate(10.143 24.027)" fill="#7bb6f6"/>
  <path id="Path_Copy_8" data-name="Path Copy 8" d="M0,3.9H2.6V27.307h8.452l6.5-11.568V27.307h7.8L37.059,3.9h2.6V0h-11.7V3.9h1.95l-4.551,8.967V0h-9.1l-7.8,14.683V3.9h2.6V0H0Z" transform="translate(35 60)" fill="#7bb6f6"/>
</svg>
