<svg id="ODS" xmlns="http://www.w3.org/2000/svg" width="95.77" height="106.363" viewBox="0 0 95.77 106.363">
  <path id="Shape_Copy_30" data-name="Shape Copy 30" d="M81.769,106.363H0V0H56.216L81.769,25.324Z" transform="translate(14)" fill="#79a92e"/>
  <path id="Shape_Copy_29" data-name="Shape Copy 29" d="M24.275,24.058H0V0Z" transform="translate(68 4)" fill="#99cd48"/>
  <rect id="Rectangle_5_Copy_22" data-name="Rectangle 5 Copy 22" width="55" height="28" rx="4" transform="translate(0 16)" fill="#658c28"/>
  <path id="ODS-2" data-name="ODS" d="M28.29,13.148a6.575,6.575,0,0,1-2.69-.54,4.279,4.279,0,0,1-1.85-1.481,3.807,3.807,0,0,1-.637-2.18h2.645a1.961,1.961,0,0,0,.636,1.587,2.909,2.909,0,0,0,1.9.532,2.471,2.471,0,0,0,1.467-.383,1.247,1.247,0,0,0,.527-1.067,1.358,1.358,0,0,0-.527-1.148,6.917,6.917,0,0,0-1.9-.843,13.509,13.509,0,0,1-2.171-.875,3.56,3.56,0,0,1-2.18-3.173,3.109,3.109,0,0,1,.584-1.85A3.826,3.826,0,0,1,25.771.457,6.336,6.336,0,0,1,28.228,0a5.774,5.774,0,0,1,2.444.5,3.917,3.917,0,0,1,1.666,1.4,3.691,3.691,0,0,1,.593,2.057H30.293a1.732,1.732,0,0,0-.554-1.367A2.288,2.288,0,0,0,28.184,2.1a2.445,2.445,0,0,0-1.5.409,1.3,1.3,0,0,0-.535,1.076,1.239,1.239,0,0,0,.628,1.046,7.115,7.115,0,0,0,1.85.791A8.028,8.028,0,0,1,31.9,7.1,3.356,3.356,0,0,1,32.93,9.6,3.093,3.093,0,0,1,31.673,12.2,5.53,5.53,0,0,1,28.29,13.148Zm-22.823,0a5.348,5.348,0,0,1-2.839-.764A5.108,5.108,0,0,1,.694,10.2,7.553,7.553,0,0,1,0,6.934V6.3A7.711,7.711,0,0,1,.681,2.975,5.089,5.089,0,0,1,2.606.769,5.322,5.322,0,0,1,5.449,0,5.322,5.322,0,0,1,8.293.769a5.1,5.1,0,0,1,1.925,2.207,7.7,7.7,0,0,1,.68,3.317v.571a7.761,7.761,0,0,1-.668,3.314,5.058,5.058,0,0,1-1.912,2.2A5.31,5.31,0,0,1,5.467,13.148ZM5.449,2.18A2.36,2.36,0,0,0,3.4,3.212a5.345,5.345,0,0,0-.729,3.029v.624a5.478,5.478,0,0,0,.721,3.041,2.349,2.349,0,0,0,2.074,1.081A2.333,2.333,0,0,0,7.506,9.945a5.454,5.454,0,0,0,.721-3.037V6.284a5.409,5.409,0,0,0-.721-3.058A2.358,2.358,0,0,0,5.449,2.18Zm10.9,10.793H12.382V.175H16.32a6.012,6.012,0,0,1,3.019.76A5.323,5.323,0,0,1,21.417,3.1a6.7,6.7,0,0,1,.747,3.186v.589a6.716,6.716,0,0,1-.733,3.173,5.284,5.284,0,0,1-2.07,2.154A6.046,6.046,0,0,1,16.347,12.973ZM15.019,2.311v8.544h1.274a2.876,2.876,0,0,0,2.364-1.012,4.586,4.586,0,0,0,.835-2.891V6.276a4.659,4.659,0,0,0-.809-2.957A2.865,2.865,0,0,0,16.32,2.311Z" transform="translate(10.756 24.027)" fill="#99cd48"/>
  <path id="_copy" data-name=" copy" d="M35.563,0H21.375V7.125h3.5l-7.062,5.938L10.688,7.125H14.25V0H0V7.125H3.563L14.25,16,3.563,24.875H0V32H14.25V24.875H10.688l7.125-5.937,7.063,5.938h-3.5V32H35.563V24.875H32L21.375,16,32,7.125h3.563Z" transform="translate(38 57)" fill="#99cd48"/>
</svg>
