<svg id="PHP" xmlns="http://www.w3.org/2000/svg" width="95.77" height="106.363" viewBox="0 0 95.77 106.363">
  <path id="Shape_Copy_128" data-name="Shape Copy 128" d="M81.769,106.363H0V0H56.216L81.769,25.324Z" transform="translate(14)" fill="#11907c"/>
  <path id="Shape_Copy_127" data-name="Shape Copy 127" d="M24.275,24.058H0V0Z" transform="translate(68 4)" fill="#37d2ba"/>
  <rect id="Rectangle_5_Copy_102" data-name="Rectangle 5 Copy 102" width="55" height="28" rx="4" transform="translate(0 16)" fill="#0d6254"/>
  <path id="PHP-2" data-name="PHP" d="M13.024,12.087h-2.49V0h2.49V4.9h4.855V0h2.49V12.085h-2.49V6.907H13.024v5.18Zm11.578,0H22.113V0h4.714a5.477,5.477,0,0,1,2.395.5,3.684,3.684,0,0,1,1.589,1.416A3.962,3.962,0,0,1,31.368,4a3.483,3.483,0,0,1-1.216,2.8,5.086,5.086,0,0,1-3.366,1.025H24.6v4.258Zm0-10.069V5.81h2.225a2.2,2.2,0,0,0,1.507-.464,1.7,1.7,0,0,0,.519-1.328,2,2,0,0,0-.523-1.436,1.969,1.969,0,0,0-1.444-.564ZM2.49,12.086H0V0H4.715A5.482,5.482,0,0,1,7.11.5,3.687,3.687,0,0,1,8.7,1.913,3.962,3.962,0,0,1,9.256,4,3.485,3.485,0,0,1,8.04,6.8,5.086,5.086,0,0,1,4.674,7.827H2.49v4.258Zm0-10.069V5.81H4.715a2.2,2.2,0,0,0,1.507-.464A1.7,1.7,0,0,0,6.74,4.018a2,2,0,0,0-.523-1.436,1.966,1.966,0,0,0-1.444-.564Z" transform="translate(11.079 23.914)" fill="#37d2ba"/>
  <path id="_copy" data-name=" copy" d="M29.672,29.953h0l-5.694-5.694,9.351-9.281L23.977,5.625,29.672,0,44.648,14.977,29.673,29.952Zm-14.7,0h0L0,14.977,14.977,0l5.7,5.625L11.32,14.977l9.352,9.281-5.694,5.694Z" transform="translate(33 57)" fill="#37d2ba"/>
</svg>
