<svg id="Animate_CC" data-name="Animate CC" xmlns="http://www.w3.org/2000/svg" width="95.77" height="106.363" viewBox="0 0 95.77 106.363">
  <path id="Shape_Copy_213" data-name="Shape Copy 213" d="M81.769,106.363H0V0H56.216L81.769,25.324Z" transform="translate(14)" fill="#521308"/>
  <path id="Shape_Copy_212" data-name="Shape Copy 212" d="M24.275,24.058H0V0Z" transform="translate(68 4)" fill="#fe4726"/>
  <rect id="Rectangle_5_Copy_176" data-name="Rectangle 5 Copy 176" width="55" height="28" rx="4" transform="translate(0 16)" fill="#370d06"/>
  <path id="AN" d="M15.4,12.8H12.76V0H15.4l5.142,8.437V0h2.628V12.8H20.53L15.4,4.377V12.8ZM2.8,12.8H0L4.764,0H7.207L12,12.8h-2.8L8.306,10.16H3.683L2.8,12.8ZM5.985,3.235l-1.59,4.79h3.2L5.985,3.235Z" transform="translate(16 24)" fill="#fe4726"/>
  <path id="_" data-name="" d="M34,34H20V23.977H0V9.985H9.985V0H24.012V9.985H43.98V23.977H34V33.995ZM24.012,23.977v6.011h5.976V23.977ZM34,13.992v5.976h6.012V13.992Zm-9.984,0v5.976h5.976V13.992Zm-10.02,0v5.976H20V13.992Zm-9.985,0v5.976H9.985V13.992Zm9.985-10.02V9.985H20V3.973Z" transform="translate(33 55)" fill="#fe4726"/>
</svg>
