<svg id="DGN" xmlns="http://www.w3.org/2000/svg" width="95.77" height="106.363" viewBox="0 0 95.77 106.363">
  <path id="Shape_Copy_163" data-name="Shape Copy 163" d="M81.769,106.363H0V0H56.216L81.769,25.324Z" transform="translate(14)" fill="#3c97a4"/>
  <path id="Shape_Copy_162" data-name="Shape Copy 162" d="M24.275,24.058H0V0Z" transform="translate(68 4)" fill="#19e2ff"/>
  <rect id="Rectangle_5_Copy_130" data-name="Rectangle 5 Copy 130" width="55" height="28" rx="4" transform="translate(0 16)" fill="#2b747f"/>
  <text id="DGN-2" data-name="DGN" transform="translate(9 20)" fill="#19e2ff" font-size="18" font-family="Roboto-Bold, Roboto" font-weight="700" letter-spacing="-0.024em"><tspan x="0" y="19">DGN</tspan></text>
  <path id="_" data-name="ï˜" d="M31.992,40.008l0,0L27.6,36,18.773,19.582a9.942,9.942,0,0,0,1.951-.739,10.651,10.651,0,0,0,1.67-1.054l9.6,18v4.218ZM0,40.008V35.789l11.6-21.8a5.086,5.086,0,0,1-1.2-1.776,5.9,5.9,0,0,1-.421-2.232,5.106,5.106,0,0,1,1.354-3.463A8.013,8.013,0,0,1,16,4.395V0a2,2,0,0,1,1.442.544A1.947,1.947,0,0,1,18,2v2.39a5.67,5.67,0,0,1,2.883,2.127,5.85,5.85,0,0,1,1.09,3.463A5.885,5.885,0,0,1,16,16h-.808L4.395,36,0,40.006ZM16,7.98a1.971,1.971,0,0,0-1.054.282A2.585,2.585,0,0,0,14.168,9a1.281,1.281,0,0,1-.087.492,1.264,1.264,0,0,0-.088.492,1.875,1.875,0,0,0,2,2,1.9,1.9,0,0,0,1.038-.281,2.924,2.924,0,0,0,.756-.7,1.071,1.071,0,0,1,.105-.51A1.068,1.068,0,0,0,18,9.985a1.926,1.926,0,0,0-2-2Z" transform="translate(39 53)" fill="#19e2ff"/>
</svg>
