<svg id="Experience_Design" data-name="Experience Design" xmlns="http://www.w3.org/2000/svg" width="95.77" height="106.363" viewBox="0 0 95.77 106.363">
  <path id="Shape_Copy_213" data-name="Shape Copy 213" d="M81.769,106.363H0V0H56.216L81.769,25.324Z" transform="translate(14)" fill="#390a2c"/>
  <path id="Shape_Copy_212" data-name="Shape Copy 212" d="M24.275,24.058H0V0Z" transform="translate(68 4)" fill="#ff2dc2"/>
  <rect id="Rectangle_5_Copy_176" data-name="Rectangle 5 Copy 176" width="55" height="28" rx="4" transform="translate(0 16)"/>
  <path id="XD" d="M3.067,12.8H0L3.823,6.346.1,0H3.129l2.4,4.412L7.928,0H10.96L7.233,6.346l3.822,6.45-3.066,0L5.529,8.314,3.067,12.8Zm12.849,0H11.952V0H15.89a6.005,6.005,0,0,1,3.019.761,5.328,5.328,0,0,1,2.079,2.162,6.7,6.7,0,0,1,.747,3.186V6.7A6.717,6.717,0,0,1,21,9.87a5.275,5.275,0,0,1-2.069,2.153A6.055,6.055,0,0,1,15.916,12.8ZM14.588,2.136h0v8.543h1.274a2.874,2.874,0,0,0,2.364-1.011,4.587,4.587,0,0,0,.835-2.892V6.1a4.663,4.663,0,0,0-.808-2.957A2.867,2.867,0,0,0,15.89,2.136Z" transform="translate(16.193 24.203)" fill="#ff2dc2"/>
  <path id="_" data-name="" d="M36,36H20V16H36V36ZM16,36H0V23.977H16V36Zm0-16H0V0H16V20Zm20-8.016H20V0H36V11.987Z" transform="translate(37 54)" fill="#ff2dc2"/>
</svg>
