<svg id="JPEG" xmlns="http://www.w3.org/2000/svg" width="95.77" height="106.363" viewBox="0 0 95.77 106.363">
  <path id="Shape_Copy_223" data-name="Shape Copy 223" d="M81.769,106.363H0V0H56.216L81.769,25.324Z" transform="translate(14)" fill="#cba610"/>
  <path id="Shape_Copy_222" data-name="Shape Copy 222" d="M24.275,24.058H0V0Z" transform="translate(68 4)" fill="#f3ce38"/>
  <rect id="Rectangle_5_Copy_184" data-name="Rectangle 5 Copy 184" width="55" height="28" rx="4" transform="translate(0 16)" fill="#af8f0e"/>
  <text id="JPEG-2" data-name="JPEG" transform="translate(5 19)" fill="#f3ce38" font-size="18" font-family="Roboto-Bold, Roboto" font-weight="700" letter-spacing="-0.024em"><tspan x="0" y="19">JPEG</tspan></text>
  <path id="_copy_6" data-name=" copy 6" d="M31.992,36H3.973a3.832,3.832,0,0,1-2.794-1.178A3.872,3.872,0,0,1,0,31.992V3.973A3.832,3.832,0,0,1,1.178,1.178,3.832,3.832,0,0,1,3.973,0h28.02a3.9,3.9,0,0,1,2.83,1.16A3.815,3.815,0,0,1,36,3.973v28.02A4.022,4.022,0,0,1,31.992,36ZM11,20.988h0l-7.032,9h28.02L22.992,18l-7,9L11,20.988Z" transform="translate(37 56)" fill="#f3ce38"/>
</svg>
