<svg id="Microsoft_DOCX" data-name="Microsoft DOCX" xmlns="http://www.w3.org/2000/svg" width="95.77" height="106.363" viewBox="0 0 95.77 106.363">
  <path id="Shape_Copy_3" data-name="Shape Copy 3" d="M81.769,106.363H0V0H56.216L81.769,25.324Z" transform="translate(14)" fill="#1c5da4"/>
  <path id="Shape_Copy_2" data-name="Shape Copy 2" d="M24.275,24.058H0V0Z" transform="translate(67.785 3.508)" fill="#7bb6f6"/>
  <rect id="Rectangle_5_Copy_2" data-name="Rectangle 5 Copy 2" width="55" height="28" rx="4" transform="translate(0 16)" fill="#2c7acd"/>
  <path id="DOCX" d="M26.546,12.418a4.568,4.568,0,0,1-3.657-1.565,6.444,6.444,0,0,1-1.332-4.3V5.819a7.279,7.279,0,0,1,.614-3.071A4.616,4.616,0,0,1,23.927.71,4.936,4.936,0,0,1,26.579,0a4.949,4.949,0,0,1,3.37,1.12,4.618,4.618,0,0,1,1.478,3.146h-2.49a2.535,2.535,0,0,0-.652-1.7,2.421,2.421,0,0,0-1.705-.527,2.125,2.125,0,0,0-1.864.892A5.031,5.031,0,0,0,24.08,5.7v.913a5.373,5.373,0,0,0,.594,2.864,2.084,2.084,0,0,0,1.872.9,2.466,2.466,0,0,0,1.722-.527,2.384,2.384,0,0,0,.652-1.631h2.49a4.294,4.294,0,0,1-1.44,3.072A5.079,5.079,0,0,1,26.546,12.418Zm-11.131,0a5.05,5.05,0,0,1-2.681-.723,4.816,4.816,0,0,1-1.826-2.063,7.112,7.112,0,0,1-.656-3.083v-.6a7.283,7.283,0,0,1,.643-3.142A4.809,4.809,0,0,1,12.713.726,5.022,5.022,0,0,1,15.4,0a5.023,5.023,0,0,1,2.686.726A4.816,4.816,0,0,1,19.9,2.81a7.275,7.275,0,0,1,.643,3.134v.539a7.332,7.332,0,0,1-.631,3.129,4.778,4.778,0,0,1-1.805,2.075A5.017,5.017,0,0,1,15.414,12.418ZM15.4,2.058a2.231,2.231,0,0,0-1.934.976,5.053,5.053,0,0,0-.689,2.859v.589a5.173,5.173,0,0,0,.68,2.872,2.22,2.22,0,0,0,1.959,1.022,2.2,2.2,0,0,0,1.926-.984,5.145,5.145,0,0,0,.68-2.868V5.936a5.113,5.113,0,0,0-.68-2.889A2.229,2.229,0,0,0,15.4,2.058ZM34.613,12.252h-2.9L35.327,6.16,31.808.166h2.864l2.266,4.167L39.2.166h2.864L38.548,6.16l3.61,6.091-2.9,0L36.938,8.019l-2.325,4.233Zm-30.869,0H0V.166H3.719A5.669,5.669,0,0,1,6.57.884,5.023,5.023,0,0,1,8.533,2.926a6.326,6.326,0,0,1,.706,3.01v.555a6.343,6.343,0,0,1-.693,3,4.984,4.984,0,0,1-1.955,2.034A5.71,5.71,0,0,1,3.744,12.252ZM2.49,2.183v8.069h1.2A2.716,2.716,0,0,0,5.927,9.3a4.331,4.331,0,0,0,.788-2.731V5.927a4.4,4.4,0,0,0-.763-2.793,2.707,2.707,0,0,0-2.233-.95Z" transform="translate(6.079 24.748)" fill="#7bb6f6"/>
  <path id="Path_Copy_4" data-name="Path Copy 4" d="M0,3.9H2.6V27.307h8.452l6.5-11.568V27.307h7.8L37.059,3.9h2.6V0h-11.7V3.9h1.95l-4.551,8.967V0h-9.1l-7.8,14.683V3.9h2.6V0H0Z" transform="translate(35 60)" fill="#7bb6f6"/>
</svg>
