<svg id="Microsoft_PUBM" data-name="Microsoft PUBM" xmlns="http://www.w3.org/2000/svg" width="95.77" height="106.363" viewBox="0 0 95.77 106.363">
  <path id="Shape_Copy_336" data-name="Shape Copy 336" d="M81.769,106.363H0V0H56.216L81.769,25.324Z" transform="translate(14)" fill="#00bf77"/>
  <path id="Shape_Copy_335" data-name="Shape Copy 335" d="M24.275,24.058H0V0Z" transform="translate(68 4)" fill="#7dffce"/>
  <rect id="Rectangle_5_Copy_278" data-name="Rectangle 5 Copy 278" width="55" height="28" rx="4" transform="translate(0 16)" fill="#0d6254"/>
  <path id="PUBM" d="M15.049,12.252a4.858,4.858,0,0,1-3.361-1.121,4.02,4.02,0,0,1-1.27-3.08V0h2.49V7.977a2.312,2.312,0,0,0,.568,1.731,2.191,2.191,0,0,0,1.573.544c1.394,0,2.112-.743,2.133-2.209V0h2.5V7.96A4.092,4.092,0,0,1,18.44,11.1,4.807,4.807,0,0,1,15.049,12.252ZM34.2,12.087h-2.49V0h3.253l3.1,8.766L41.154,0h3.271V12.085h-2.5v-3.3l.248-5.7-3.262,9.006H37.2l-3.254-9L34.2,8.782v3.3Zm-8.209,0h-4.7V0h4.234a5.584,5.584,0,0,1,3.337.842A2.893,2.893,0,0,1,30,3.312a2.748,2.748,0,0,1-.456,1.565,2.649,2.649,0,0,1-1.27.992,2.563,2.563,0,0,1,1.465.938,2.784,2.784,0,0,1,.535,1.726,3.2,3.2,0,0,1-1.112,2.64A5.028,5.028,0,0,1,25.989,12.086ZM23.781,6.823v3.262h2.134a2.066,2.066,0,0,0,1.373-.419,1.441,1.441,0,0,0,.494-1.157,1.523,1.523,0,0,0-1.718-1.686Zm0-4.806V5.063h1.843c1.251-.022,1.885-.528,1.885-1.5a1.4,1.4,0,0,0-.478-1.184,2.523,2.523,0,0,0-1.507-.361ZM2.49,12.086H0V0H4.715A5.482,5.482,0,0,1,7.11.5,3.687,3.687,0,0,1,8.7,1.913,3.962,3.962,0,0,1,9.256,4,3.485,3.485,0,0,1,8.04,6.8,5.086,5.086,0,0,1,4.674,7.827H2.49v4.258Zm0-10.069V5.81H4.715a2.2,2.2,0,0,0,1.507-.464A1.7,1.7,0,0,0,6.74,4.018a2,2,0,0,0-.523-1.436,1.966,1.966,0,0,0-1.444-.564Z" transform="translate(5 24)" fill="#7dffce"/>
  <text id="P_Copy_2" data-name="P Copy 2" transform="translate(43 89)" fill="#7dffce" font-size="36" font-family="Roboto-Bold, Roboto" font-weight="700" letter-spacing="-0.012em"><tspan x="0" y="0">P</tspan></text>
</svg>
