<svg id="MSG" xmlns="http://www.w3.org/2000/svg" width="95.77" height="106.363" viewBox="0 0 95.77 106.363">
  <path id="Shape_Copy_258" data-name="Shape Copy 258" d="M81.769,106.363H0V0H56.216L81.769,25.324Z" transform="translate(14)" fill="#7883a4"/>
  <path id="Shape_Copy_257" data-name="Shape Copy 257" d="M24.275,24.058H0V0Z" transform="translate(68 4)" fill="#9aa6ca"/>
  <rect id="Rectangle_5_Copy_214" data-name="Rectangle 5 Copy 214" width="55" height="28" rx="4" transform="translate(0 16)" fill="#4b536d"/>
  <text id="MSG-2" data-name="MSG" transform="translate(9 20)" fill="#9aa6ca" font-size="17" font-family="Roboto-Bold, Roboto" font-weight="700" letter-spacing="-0.025em"><tspan x="0" y="18">MSG</tspan></text>
  <path id="_copy_3" data-name=" copy 3" d="M36,38.742H4.008a3.872,3.872,0,0,1-2.83-1.178A3.872,3.872,0,0,1,0,34.735v-20a3.859,3.859,0,0,1,.527-1.986A4.019,4.019,0,0,1,1.933,11.32L20,0,38.039,11.32a4.166,4.166,0,0,1,1.424,1.424,3.771,3.771,0,0,1,.545,1.986v20A4.021,4.021,0,0,1,36,38.742ZM4.008,19.442V34.735H36V19.442L20,29.461Zm16-14.7-16,9.985L20,24.75,36,14.73Z" transform="translate(35 54)" fill="#9aa6ca"/>
</svg>
