<svg id="VDX" xmlns="http://www.w3.org/2000/svg" width="95.77" height="106.363" viewBox="0 0 95.77 106.363">
  <path id="Shape_Copy_246" data-name="Shape Copy 246" d="M24.275,24.058H0V0Z" transform="translate(68 4)" fill="#7bb6f6"/>
  <rect id="Rectangle_5_Copy_205" data-name="Rectangle 5 Copy 205" width="55" height="28" rx="4" transform="translate(0 16)" fill="#2c7acd"/>
  <text id="DOC_Copy_145" data-name="DOC Copy 145" transform="translate(9 20)" fill="#7bb6f6" font-size="18" font-family="Roboto-Bold, Roboto" font-weight="700" letter-spacing="-0.024em"><tspan x="0" y="19">DO</tspan><tspan y="19" letter-spacing="-0.029em">C</tspan></text>
  <path id="Path_Copy_157" data-name="Path Copy 157" d="M0,2.917H1.945V20.423H8.266l4.862-8.651v8.651h5.835L27.717,2.917h1.945V0H20.909V2.917h1.459l-3.4,6.706V0H12.156L6.321,10.981V2.917H8.266V0H0Z" transform="translate(40 65)" fill="#76b1f1"/>
  <path id="Shape_Copy_245" data-name="Shape Copy 245" d="M24.275,24.058H0V0Z" transform="translate(68 4)" fill="#7bb6f6"/>
  <rect id="Rectangle_5_Copy_204" data-name="Rectangle 5 Copy 204" width="55" height="28" rx="4" transform="translate(0 16)" fill="#2c7acd"/>
  <text id="DOC_Copy_144" data-name="DOC Copy 144" transform="translate(9 20)" fill="#7bb6f6" font-size="18" font-family="Roboto-Bold, Roboto" font-weight="700" letter-spacing="-0.024em"><tspan x="0" y="19">DO</tspan><tspan y="19" letter-spacing="-0.029em">C</tspan></text>
  <path id="Path_Copy_156" data-name="Path Copy 156" d="M0,3.9H2.6V27.307h8.452l6.5-11.568V27.307h7.8L37.059,3.9h2.6V0h-11.7V3.9h1.95l-4.551,8.967V0h-9.1l-7.8,14.683V3.9h2.6V0H0Z" transform="translate(35 60)" fill="#fff"/>
  <path id="Shape_Copy_244" data-name="Shape Copy 244" d="M24.275,24.058H0V0Z" transform="translate(68 4)" fill="#7bb6f6"/>
  <rect id="Rectangle_5_Copy_203" data-name="Rectangle 5 Copy 203" width="55" height="28" rx="4" transform="translate(0 16)" fill="#2c7acd"/>
  <text id="DOC_Copy_143" data-name="DOC Copy 143" transform="translate(9 20)" fill="#7bb6f6" font-size="18" font-family="Roboto-Bold, Roboto" font-weight="700" letter-spacing="-0.024em"><tspan x="0" y="19">DO</tspan><tspan y="19" letter-spacing="-0.029em">C</tspan></text>
  <path id="Path_Copy_155" data-name="Path Copy 155" d="M0,2.917H1.945V20.423H8.266l4.862-8.651v8.651h5.835L27.717,2.917h1.945V0H20.909V2.917h1.459l-3.4,6.706V0H12.156L6.321,10.981V2.917H8.266V0H0Z" transform="translate(40 65)" fill="#76b1f1"/>
  <path id="Shape_Copy_243" data-name="Shape Copy 243" d="M81.769,106.363H0V0H56.216L81.769,25.324Z" transform="translate(14)" fill="#b9b8a2"/>
  <path id="Shape_Copy_242" data-name="Shape Copy 242" d="M24.275,24.058H0V0Z" transform="translate(68 4)" fill="#e2e0c1"/>
  <rect id="Rectangle_5_Copy_202" data-name="Rectangle 5 Copy 202" width="55" height="28" rx="4" transform="translate(0 16)" fill="#7e7f72"/>
  <path id="VDX-2" data-name="VDX" d="M24.138,12.087h-2.9l3.611-6.093L21.333,0H24.2l2.265,4.167L28.728,0h2.864L28.073,5.993l3.61,6.091-2.9,0L26.462,7.853l-2.324,4.234Zm-8.69,0H11.7V0h3.719a5.669,5.669,0,0,1,2.851.718A5.022,5.022,0,0,1,20.237,2.76a6.319,6.319,0,0,1,.706,3.009v.556a6.343,6.343,0,0,1-.693,3,4.983,4.983,0,0,1-1.955,2.033A5.71,5.71,0,0,1,15.448,12.086ZM14.194,2.017h0v8.069h1.2a2.712,2.712,0,0,0,2.233-.955A4.336,4.336,0,0,0,18.419,6.4V5.761a4.4,4.4,0,0,0-.764-2.794,2.707,2.707,0,0,0-2.233-.95ZM6.79,12.086h-2.6L0,0H2.764L5.486,9.089,8.226,0H11L6.79,12.085Z" transform="translate(11.058 23.914)" fill="#e2e0c1"/>
  <rect id="Rectangle-path" width="11" height="11" transform="translate(36 81)" fill="#e2e0c1"/>
  <path id="Shape" d="M6.444,14.122.328,7.992a1.06,1.06,0,0,1,0-1.533L6.444.328a1.054,1.054,0,0,1,1.529,0L14.09,6.459a1.06,1.06,0,0,1,0,1.533L7.973,14.122A1.054,1.054,0,0,1,6.444,14.122Z" transform="translate(60.558 54.027)" fill="#e2e0c1"/>
  <ellipse id="Oval" cx="6.553" cy="6.568" rx="6.553" ry="6.568" transform="translate(35 54.684)" fill="#e2e0c1"/>
  <ellipse id="Oval-2" data-name="Oval" cx="6.553" cy="6.568" rx="6.553" ry="6.568" transform="translate(61.213 79.863)" fill="#e2e0c1"/>
  <rect id="Rectangle-path-2" data-name="Rectangle-path" width="2.318" height="5.455" transform="translate(40.318 73.273)" fill="#e2e0c1"/>
  <path id="Shape-2" data-name="Shape" d="M3.476,0,0,4.364H6.953Z" transform="translate(38 70)" fill="#e2e0c1"/>
  <rect id="Rectangle-path-3" data-name="Rectangle-path" width="5.418" height="2.333" transform="translate(50 60.333)" fill="#e2e0c1"/>
  <path id="Shape-3" data-name="Shape" d="M4.334,3.5,0,0V7Z" transform="translate(54.334 58)" fill="#e2e0c1"/>
  <rect id="Rectangle-path-4" data-name="Rectangle-path" width="2.318" height="5.455" transform="translate(66.318 70)" fill="#e2e0c1"/>
  <path id="Shape-4" data-name="Shape" d="M3.476,4.364,6.953,0H0Z" transform="translate(64 74.364)" fill="#e2e0c1"/>
</svg>
