<svg id="Aftereffects" xmlns="http://www.w3.org/2000/svg" width="95.77" height="106.363" viewBox="0 0 95.77 106.363">
  <path id="Shape_Copy_113" data-name="Shape Copy 113" d="M81.769,106.363H0V0H56.216L81.769,25.324Z" transform="translate(14)" fill="#4d008d"/>
  <path id="Shape_Copy_112" data-name="Shape Copy 112" d="M24.275,24.058H0V0Z" transform="translate(68 4)" fill="#dba7ff"/>
  <rect id="Rectangle_5_Copy_90" data-name="Rectangle 5 Copy 90" width="55" height="28" rx="4" transform="translate(0 16)" fill="#2c0050"/>
  <path id="AE" d="M2.8,12.8H0L4.764,0H7.207L12,12.8h-2.8L8.306,10.16H3.683L2.8,12.8ZM5.985,3.235l-1.59,4.79h3.2L5.985,3.235ZM21.338,12.8H12.76V0h8.561V2.136H15.4v3.05H20.46V7.251H15.4v3.427h5.941V12.8Z" transform="translate(16.062 24.203)" fill="#dba7ff"/>
  <path id="_" data-name="" d="M36,40.008H20a3.862,3.862,0,0,1-2.848-1.177A3.909,3.909,0,0,1,16,36V20A3.962,3.962,0,0,1,20,16H36a3.909,3.909,0,0,1,2.831,1.16A3.862,3.862,0,0,1,40.008,20V36A4.019,4.019,0,0,1,36,40.008ZM11.988,31.992H7.98v-20A4.022,4.022,0,0,1,11.988,7.98h20v4.008h-20v20Zm-7.98-8.015H0V4.008A3.888,3.888,0,0,1,1.16,1.16,3.888,3.888,0,0,1,4.008,0H23.977V4.008H4.008V23.976Z" transform="translate(35 53)" fill="#dba7ff"/>
</svg>
