<svg id="Axure_RP" data-name="Axure RP" xmlns="http://www.w3.org/2000/svg" width="95.77" height="106.363" viewBox="0 0 95.77 106.363">
  <path id="Shape_Copy_213" data-name="Shape Copy 213" d="M81.769,106.363H0V0H56.216L81.769,25.324Z" transform="translate(14)" fill="#4d1772"/>
  <path id="Shape_Copy_212" data-name="Shape Copy 212" d="M24.275,24.058H0V0Z" transform="translate(68 4)" fill="#d512fa"/>
  <rect id="Rectangle_5_Copy_176" data-name="Rectangle 5 Copy 176" width="55" height="28" rx="4" transform="translate(0 16)"/>
  <path id="RP" d="M2.637,12.8H0V0H4.755a5.4,5.4,0,0,1,3.5,1.011,3.5,3.5,0,0,1,1.23,2.857,3.956,3.956,0,0,1-.567,2.184A3.885,3.885,0,0,1,7.2,7.444l2.768,5.23V12.8H7.137l-2.4-4.684h-2.1V12.8Zm0-10.662V5.977H4.764A2.189,2.189,0,0,0,6.3,5.471a1.812,1.812,0,0,0,.545-1.393,1.941,1.941,0,0,0-.514-1.424,2.147,2.147,0,0,0-1.578-.518ZM13.692,12.8H11.056V0h4.992a5.8,5.8,0,0,1,2.535.527,3.908,3.908,0,0,1,1.683,1.5,4.2,4.2,0,0,1,.589,2.21A3.691,3.691,0,0,1,19.568,7.2,5.388,5.388,0,0,1,16,8.288H13.692V12.8Zm0-10.661V6.152h2.356a2.325,2.325,0,0,0,1.595-.492,1.8,1.8,0,0,0,.549-1.406,2.122,2.122,0,0,0-.553-1.521,2.076,2.076,0,0,0-1.529-.6Z" transform="translate(17.143 24.203)" fill="#d512fa"/>
  <path id="Shape" d="M36,36H28V12h8V36ZM24,36H0V12H24V36ZM36,8H0V0H36V8Z" transform="translate(36 53)" fill="#d512fa"/>
</svg>
