<svg xmlns="http://www.w3.org/2000/svg" width="95.77" height="106.363" viewBox="0 0 95.77 106.363">
  <g id="Group_47" data-name="Group 47" transform="translate(-6060 -480.5)">
    <path id="Shape_Copy_128" data-name="Shape Copy 128" d="M81.769,106.363H0V0H56.216L81.769,25.324Z" transform="translate(6074 480.5)" fill="#11907c"/>
    <path id="Shape_Copy_127" data-name="Shape Copy 127" d="M24.275,24.058H0V0Z" transform="translate(6128 484.5)" fill="#37d2ba"/>
    <rect id="Rectangle_5_Copy_102" data-name="Rectangle 5 Copy 102" width="55" height="28" rx="4" transform="translate(6060 496.5)" fill="#0d6254"/>
    <path id="_copy" data-name=" copy" d="M29.672,29.953h0l-5.694-5.694,9.351-9.281L23.977,5.625,29.672,0,44.648,14.977,29.673,29.952Zm-14.7,0h0L0,14.977,14.977,0l5.7,5.625L11.32,14.977l9.352,9.281-5.694,5.694Z" transform="translate(6093 537.5)" fill="#37d2ba"/>
    <text id="JPEG" transform="translate(6070 498.5)" fill="#37d2ba" font-size="18" font-family="Roboto-Bold, Roboto" font-weight="700" letter-spacing="-0.024em"><tspan x="0" y="19">CSS</tspan></text>
  </g>
</svg>
