<svg id="DreamWeaver" xmlns="http://www.w3.org/2000/svg" width="95.77" height="106.363" viewBox="0 0 95.77 106.363">
  <path id="Shape_Copy_213" data-name="Shape Copy 213" d="M81.769,106.363H0V0H56.216L81.769,25.324Z" transform="translate(14)" fill="#0b3101"/>
  <path id="Shape_Copy_212" data-name="Shape Copy 212" d="M24.275,24.058H0V0Z" transform="translate(68 4)" fill="#34f800"/>
  <rect id="Rectangle_5_Copy_176" data-name="Rectangle 5 Copy 176" width="55" height="28" rx="4" transform="translate(0 16)"/>
  <path id="DW" d="M16.826,12.8H14.172L11.334,0h2.627l1.732,9.088L17.8,0h2.233l2.1,9.105L23.858,0h2.627L23.647,12.8H20.993L18.91,4.236,16.826,12.8Zm-12.863,0H0V0H3.938A6.005,6.005,0,0,1,6.956.76,5.32,5.32,0,0,1,9.035,2.922a6.7,6.7,0,0,1,.747,3.186V6.7A6.727,6.727,0,0,1,9.049,9.87a5.284,5.284,0,0,1-2.07,2.153A6.055,6.055,0,0,1,3.964,12.8ZM2.637,2.136v8.543H3.911A2.876,2.876,0,0,0,6.276,9.668,4.592,4.592,0,0,0,7.11,6.776V6.1A4.663,4.663,0,0,0,6.3,3.142,2.867,2.867,0,0,0,3.938,2.136Z" transform="translate(14.143 24.203)" fill="#34f800"/>
  <path id="_" data-name="" d="M25.98,36H21.973V31.992H25.98V21.973a3.832,3.832,0,0,1,1.178-2.795A3.872,3.872,0,0,1,29.988,18a4.022,4.022,0,0,1-4.008-4.008V3.973H21.973V0H25.98a3.876,3.876,0,0,1,2.83,1.178,3.834,3.834,0,0,1,1.177,2.794v8.015A4.021,4.021,0,0,0,34,16h2V20H34a3.9,3.9,0,0,0-2.83,1.16,3.818,3.818,0,0,0-1.178,2.813v8.015A4.021,4.021,0,0,1,25.98,36ZM13.992,36H9.985a4.021,4.021,0,0,1-4.008-4.008V23.977A3.818,3.818,0,0,0,4.8,21.164,3.86,3.86,0,0,0,2,20H0V16H2A3.834,3.834,0,0,0,4.8,14.819a3.879,3.879,0,0,0,1.178-2.831V3.973A3.834,3.834,0,0,1,7.154,1.178,3.876,3.876,0,0,1,9.985,0h4.008V3.973H9.985v10.02a3.872,3.872,0,0,1-1.178,2.83A3.872,3.872,0,0,1,5.977,18a3.873,3.873,0,0,1,2.83,1.178,3.832,3.832,0,0,1,1.178,2.795v10.02h4.008V36Z" transform="translate(37 54)" fill="#34f800"/>
</svg>
