<svg id="F4A" xmlns="http://www.w3.org/2000/svg" width="95.77" height="106.363" viewBox="0 0 95.77 106.363">
  <path id="Shape_Copy_198" data-name="Shape Copy 198" d="M81.769,106.363H0V0H56.216L81.769,25.324Z" transform="translate(14)" fill="#32373f"/>
  <path id="Shape_Copy_197" data-name="Shape Copy 197" d="M24.275,24.058H0V0Z" transform="translate(68 4)" fill="#d1d1d1"/>
  <rect id="Rectangle_5_Copy_164" data-name="Rectangle 5 Copy 164" width="55" height="28" rx="4" transform="translate(0 16)"/>
  <text id="F4A-2" data-name="F4A" transform="translate(10 20)" fill="#d1d1d1" font-size="18" font-family="Roboto-Bold, Roboto" font-weight="700" letter-spacing="-0.024em"><tspan x="0" y="19">F4A</tspan></text>
  <path id="_copy_8" data-name=" copy 8" d="M20,40.008a19.409,19.409,0,0,1-7.788-1.582,20.671,20.671,0,0,1-6.363-4.289,20.016,20.016,0,0,1-4.289-6.364A19.626,19.626,0,0,1,0,20a19.6,19.6,0,0,1,1.564-7.788A20.081,20.081,0,0,1,12.217,1.564,19.6,19.6,0,0,1,20,0a19.626,19.626,0,0,1,7.769,1.564,20.016,20.016,0,0,1,6.364,4.289,20.671,20.671,0,0,1,4.289,6.363,19.91,19.91,0,0,1,0,15.557A20.065,20.065,0,0,1,27.773,38.426,19.438,19.438,0,0,1,20,40.008ZM16.98,20a5,5,0,0,0-3.533,8.525,4.833,4.833,0,0,0,3.533,1.459,4.888,4.888,0,0,0,3.551-1.459A4.8,4.8,0,0,0,22.008,25v-11h5.977V9.985H20v11a5.431,5.431,0,0,0-1.389-.72A4.94,4.94,0,0,0,16.98,20Z" transform="translate(35 52)" fill="#d1d1d1"/>
</svg>
