<svg id="HTML" xmlns="http://www.w3.org/2000/svg" width="95.77" height="106.363" viewBox="0 0 95.77 106.363">
  <path id="Shape_Copy_123" data-name="Shape Copy 123" d="M81.769,106.363H0V0H56.216L81.769,25.324Z" transform="translate(14)" fill="#11907c"/>
  <path id="Shape_Copy_122" data-name="Shape Copy 122" d="M24.275,24.058H0V0Z" transform="translate(68 4)" fill="#37d2ba"/>
  <rect id="Rectangle_5_Copy_98" data-name="Rectangle 5 Copy 98" width="55" height="28" rx="4" transform="translate(0 16)" fill="#0d6254"/>
  <path id="HTML-2" data-name="HTML" d="M23.914,12.087h-2.49V0h3.253l3.1,8.766L30.87,0h3.271V12.085h-2.5v-3.3l.248-5.7-3.262,9.006h-1.71l-3.254-9,.249,5.694v3.3Zm-21.424,0H0V0H2.49V4.9H7.346V0h2.49V12.085H7.346V6.907H2.49v5.18Zm41.171,0H35.883V0h2.49V10.085h5.288v2Zm-26.927,0h-2.49V2.017H10.591V0h9.845V2.017h-3.7V12.085Z" transform="translate(6.079 23.914)" fill="#37d2ba"/>
  <path id="_" data-name="" d="M29.672,29.953h0l-5.694-5.694,9.351-9.281L23.977,5.625,29.672,0,44.648,14.977,29.673,29.952Zm-14.7,0h0L0,14.977,14.977,0l5.7,5.625L11.32,14.977l9.352,9.281-5.694,5.694Z" transform="translate(33 57)" fill="#37d2ba"/>
</svg>
