<svg id="Light_Room" data-name="Light Room" xmlns="http://www.w3.org/2000/svg" width="95.77" height="106.363" viewBox="0 0 95.77 106.363">
  <path id="Shape_Copy_213" data-name="Shape Copy 213" d="M81.769,106.363H0V0H56.216L81.769,25.324Z" transform="translate(14)" fill="#082531"/>
  <path id="Shape_Copy_212" data-name="Shape Copy 212" d="M24.275,24.058H0V0Z" transform="translate(68 4)" fill="#a7cfe9"/>
  <rect id="Rectangle_5_Copy_176" data-name="Rectangle 5 Copy 176" width="55" height="28" rx="4" transform="translate(0 16)"/>
  <path id="LR" d="M11.952,12.8H9.315V0H14.07a5.4,5.4,0,0,1,3.5,1.011A3.5,3.5,0,0,1,18.8,3.867a3.956,3.956,0,0,1-.567,2.184,3.886,3.886,0,0,1-1.718,1.392l2.768,5.23V12.8h-2.83l-2.4-4.684h-2.1V12.8Zm0-10.662V5.977h2.127a2.189,2.189,0,0,0,1.538-.506,1.813,1.813,0,0,0,.545-1.393,1.941,1.941,0,0,0-.515-1.424,2.147,2.147,0,0,0-1.578-.518ZM8.235,12.8H0V0H2.637V10.679h5.6V12.8Z" transform="translate(17.143 24.203)" fill="#a7cfe9"/>
  <path id="_" data-name="" d="M18,40.008H10.02a1.912,1.912,0,0,1-1.424-.6A1.961,1.961,0,0,1,8.015,38V36H20v2a1.961,1.961,0,0,1-.58,1.406A1.915,1.915,0,0,1,18,40.008Zm2-8.015H8.015a1.958,1.958,0,0,1-1.406-.58,1.912,1.912,0,0,1-.6-1.424v-4.5a14.881,14.881,0,0,1-2.462-2.215A14.208,14.208,0,0,1,1.67,20.567a14.625,14.625,0,0,1-1.23-3.129A13.431,13.431,0,0,1,0,13.992,13.635,13.635,0,0,1,1.107,8.526,14.349,14.349,0,0,1,4.113,4.078,14.085,14.085,0,0,1,8.561,1.09,13.824,13.824,0,0,1,14.027,0a13.736,13.736,0,0,1,5.431,1.09,14.07,14.07,0,0,1,4.447,2.988,14.318,14.318,0,0,1,3.006,4.448,13.62,13.62,0,0,1,1.108,5.467,13.807,13.807,0,0,1-3.533,9.281,15.442,15.442,0,0,1-2.479,2.215v4.5a1.981,1.981,0,0,1-2,2ZM14.027,4.008a9.97,9.97,0,0,0-3.9.773A9.817,9.817,0,0,0,6.944,6.926,10.476,10.476,0,0,0,4.8,10.107a9.646,9.646,0,0,0-.791,3.885,9.88,9.88,0,0,0,1.67,5.537,10.162,10.162,0,0,0,1.9,2.11,10.372,10.372,0,0,0,2.443,1.529v4.817H18V23.168a10.37,10.37,0,0,0,2.444-1.529,10.162,10.162,0,0,0,1.9-2.11,9.9,9.9,0,0,0,1.67-5.537,9.646,9.646,0,0,0-.791-3.885,10.476,10.476,0,0,0-2.145-3.182,9.814,9.814,0,0,0-7.049-2.918Z" transform="translate(41 52)" fill="#a7cfe9"/>
</svg>
