<svg id="MPP" xmlns="http://www.w3.org/2000/svg" width="95.77" height="106.363" viewBox="0 0 95.77 106.363">
  <path id="Shape_Copy_243" data-name="Shape Copy 243" d="M81.769,106.363H0V0H56.216L81.769,25.324Z" transform="translate(14)" fill="#b9b8a2"/>
  <path id="Shape_Copy_242" data-name="Shape Copy 242" d="M24.275,24.058H0V0Z" transform="translate(68 4)" fill="#e2e0c1"/>
  <rect id="Rectangle_5_Copy_202" data-name="Rectangle 5 Copy 202" width="55" height="28" rx="4" transform="translate(0 16)" fill="#7e7f72"/>
  <text id="MPP-2" data-name="MPP" transform="translate(10 20)" fill="#e2e0c1" font-size="17" font-family="Roboto-Bold, Roboto" font-weight="700" letter-spacing="-0.025em"><tspan x="0" y="18">MPP</tspan></text>
  <rect id="Rectangle-path" width="11" height="11" transform="translate(36 81)" fill="#e2e0c1"/>
  <ellipse id="Oval" cx="6.553" cy="6.568" rx="6.553" ry="6.568" transform="translate(35 54.684)" fill="#e2e0c1"/>
  <ellipse id="Oval-2" data-name="Oval" cx="6.553" cy="6.568" rx="6.553" ry="6.568" transform="translate(61.213 79.863)" fill="#e2e0c1"/>
  <rect id="Rectangle-path-2" data-name="Rectangle-path" width="2.318" height="5.455" transform="translate(40.318 73.273)" fill="#e2e0c1"/>
  <path id="Shape" d="M3.476,0,0,4.364H6.953Z" transform="translate(38 70)" fill="#e2e0c1"/>
  <rect id="Rectangle-path-3" data-name="Rectangle-path" width="5.418" height="2.333" transform="translate(50 60.333)" fill="#e2e0c1"/>
  <path id="Shape-2" data-name="Shape" d="M4.334,3.5,0,0V7Z" transform="translate(54.334 58)" fill="#e2e0c1"/>
  <rect id="Rectangle-path-4" data-name="Rectangle-path" width="2.318" height="5.455" transform="translate(66.318 70)" fill="#e2e0c1"/>
  <path id="Shape-3" data-name="Shape" d="M3.476,4.364,6.953,0H0Z" transform="translate(64 74.364)" fill="#e2e0c1"/>
  <rect id="Rectangle-path-5" data-name="Rectangle-path" width="5.418" height="2.333" transform="translate(50 60.333)" fill="#e2e0c1"/>
  <path id="Shape-4" data-name="Shape" d="M4.334,3.5,0,0V7Z" transform="translate(54.334 58)" fill="#e2e0c1"/>
  <rect id="Rectangle-path-6" data-name="Rectangle-path" width="2.318" height="5.455" transform="translate(66.318 70)" fill="#e2e0c1"/>
  <path id="Shape-5" data-name="Shape" d="M3.476,4.364,6.953,0H0Z" transform="translate(64 74.364)" fill="#e2e0c1"/>
  <path id="Shape-6" data-name="Shape" d="M6.444,14.122.328,7.992a1.06,1.06,0,0,1,0-1.533L6.444.328a1.054,1.054,0,0,1,1.529,0L14.09,6.459a1.06,1.06,0,0,1,0,1.533L7.973,14.122A1.054,1.054,0,0,1,6.444,14.122Z" transform="translate(60.558 54.027)" fill="#e2e0c1"/>
</svg>
