<svg id="Group_15" data-name="Group 15" xmlns="http://www.w3.org/2000/svg" width="95.77" height="106.363" viewBox="0 0 95.77 106.363">
  <g id="Group_87_Copy_5" data-name="Group 87 Copy 5">
    <path id="Shape_Copy_246" data-name="Shape Copy 246" d="M24.275,24.058H0V0Z" transform="translate(68 4)" fill="#7bb6f6"/>
    <rect id="Rectangle_5_Copy_205" data-name="Rectangle 5 Copy 205" width="55" height="28" rx="4" transform="translate(0 16)" fill="#2c7acd"/>
    <text id="DOC_Copy_145" data-name="DOC Copy 145" transform="translate(9 20)" fill="#7bb6f6" font-size="18" font-family="Roboto-Bold, Roboto" font-weight="700" letter-spacing="-0.024em"><tspan x="0" y="19">DO</tspan><tspan y="19" letter-spacing="-0.029em">C</tspan></text>
    <path id="Path_Copy_157" data-name="Path Copy 157" d="M0,2.917H1.945V20.423H8.266l4.862-8.651v8.651h5.835L27.717,2.917h1.945V0H20.909V2.917h1.459l-3.4,6.706V0H12.156L6.321,10.981V2.917H8.266V0H0Z" transform="translate(40 65)" fill="#76b1f1"/>
    <path id="Shape_Copy_245" data-name="Shape Copy 245" d="M24.275,24.058H0V0Z" transform="translate(68 4)" fill="#7bb6f6"/>
    <rect id="Rectangle_5_Copy_204" data-name="Rectangle 5 Copy 204" width="55" height="28" rx="4" transform="translate(0 16)" fill="#2c7acd"/>
    <text id="DOC_Copy_144" data-name="DOC Copy 144" transform="translate(9 20)" fill="#7bb6f6" font-size="18" font-family="Roboto-Bold, Roboto" font-weight="700" letter-spacing="-0.024em"><tspan x="0" y="19">DO</tspan><tspan y="19" letter-spacing="-0.029em">C</tspan></text>
    <path id="Path_Copy_156" data-name="Path Copy 156" d="M0,3.9H2.6V27.307h8.452l6.5-11.568V27.307h7.8L37.059,3.9h2.6V0h-11.7V3.9h1.95l-4.551,8.967V0h-9.1l-7.8,14.683V3.9h2.6V0H0Z" transform="translate(35 60)" fill="#fff"/>
    <path id="Shape_Copy_244" data-name="Shape Copy 244" d="M24.275,24.058H0V0Z" transform="translate(68 4)" fill="#7bb6f6"/>
    <rect id="Rectangle_5_Copy_203" data-name="Rectangle 5 Copy 203" width="55" height="28" rx="4" transform="translate(0 16)" fill="#2c7acd"/>
    <text id="DOC_Copy_143" data-name="DOC Copy 143" transform="translate(9 20)" fill="#7bb6f6" font-size="18" font-family="Roboto-Bold, Roboto" font-weight="700" letter-spacing="-0.024em"><tspan x="0" y="19">DO</tspan><tspan y="19" letter-spacing="-0.029em">C</tspan></text>
    <path id="Path_Copy_155" data-name="Path Copy 155" d="M0,2.917H1.945V20.423H8.266l4.862-8.651v8.651h5.835L27.717,2.917h1.945V0H20.909V2.917h1.459l-3.4,6.706V0H12.156L6.321,10.981V2.917H8.266V0H0Z" transform="translate(40 65)" fill="#76b1f1"/>
    <path id="Shape_Copy_243" data-name="Shape Copy 243" d="M81.769,106.363H0V0H56.216L81.769,25.324Z" transform="translate(14)" fill="#eb5f5f"/>
    <path id="Shape_Copy_242" data-name="Shape Copy 242" d="M24.275,24.058H0V0Z" transform="translate(68 4)" fill="#ffabab"/>
    <rect id="Rectangle_5_Copy_202" data-name="Rectangle 5 Copy 202" width="55" height="28" rx="4" transform="translate(0 16)" fill="#c24949"/>
    <path id="ONE" d="M5.163,12.418A5.05,5.05,0,0,1,2.482,11.7,4.816,4.816,0,0,1,.656,9.633,7.112,7.112,0,0,1,0,6.549v-.6A7.283,7.283,0,0,1,.644,2.81,4.809,4.809,0,0,1,2.462.726,5.022,5.022,0,0,1,5.146,0,5.023,5.023,0,0,1,7.832.726,4.816,4.816,0,0,1,9.65,2.81a7.275,7.275,0,0,1,.644,3.134v.539a7.332,7.332,0,0,1-.631,3.129,4.778,4.778,0,0,1-1.805,2.075A5.017,5.017,0,0,1,5.163,12.418ZM5.146,2.058a2.231,2.231,0,0,0-1.934.976,5.053,5.053,0,0,0-.689,2.859v.589A5.173,5.173,0,0,0,3.2,9.355a2.22,2.22,0,0,0,1.959,1.022,2.2,2.2,0,0,0,1.926-.984,5.145,5.145,0,0,0,.68-2.868V5.936a5.113,5.113,0,0,0-.68-2.889A2.229,2.229,0,0,0,5.146,2.058Zm9.014,10.194H11.67V.166h2.49l4.856,7.97V.166H21.5V12.251h-2.49L14.161,4.3v7.951Zm17.183,0h-8.1V.166h8.085V2.183H25.732v2.88h4.781V7.015H25.732v3.237h5.611v2Z" transform="translate(10.714 23.748)" fill="#ffabab"/>
  </g>
  <path id="_" data-name="" d="M36,23.977H0V15.961H36v8.015ZM48.023,7.945H0V0H48.023V7.944Z" transform="translate(33 61)" fill="#ffabab"/>
</svg>
