<svg id="PDF" xmlns="http://www.w3.org/2000/svg" width="95.77" height="106.363" viewBox="0 0 95.77 106.363">
  <path id="Shape_Copy_22" data-name="Shape Copy 22" d="M81.769,106.363H0V0H56.216L81.769,25.324Z" transform="translate(14)" fill="#c61716"/>
  <path id="Shape_Copy_21" data-name="Shape Copy 21" d="M24.275,24.058H0V0Z" transform="translate(68 4)" fill="#ff7f7f"/>
  <rect id="Rectangle_5_Copy_16" data-name="Rectangle 5 Copy 16" width="55" height="28" rx="4" transform="translate(0 16)" fill="#9f1312"/>
  <text id="PDF-2" data-name="PDF" transform="translate(11 19)" fill="#ff7f7f" font-size="18" font-family="Roboto-Bold, Roboto" font-weight="700" letter-spacing="-0.024em"><tspan x="0" y="19">PDF</tspan></text>
  <path id="_" data-name="" d="M3.182,39h0L1.8,38.614.31,37.674.2,37.508a3.026,3.026,0,0,1-.193-.856A2.787,2.787,0,0,1,.088,35.8a7.761,7.761,0,0,1,1.63-3.037,16.141,16.141,0,0,1,4.225-3.591L8.762,27.62,11.8,21.93a48.951,48.951,0,0,0,1.989-4.778c.547-1.55,1.012-3.027,1.382-4.392v-.055a36.7,36.7,0,0,1-1.216-5,12.815,12.815,0,0,1,.553-5.275A3.349,3.349,0,0,1,15.39.773,2.159,2.159,0,0,1,16.992,0h.718A2.885,2.885,0,0,1,18.76.194a2.551,2.551,0,0,1,.884.58C20.67,1.8,21.07,3.435,20.831,5.635A49.55,49.55,0,0,1,19.7,12.1l-.111.442a24.016,24.016,0,0,0,2.237,4.723,13.35,13.35,0,0,0,2.789,3.287l2.707,1.823,4.088-.221a16.257,16.257,0,0,1,4.7.553,4.124,4.124,0,0,1,2.431,1.657,1.924,1.924,0,0,1,.386.773,2.032,2.032,0,0,1,0,.94,2.9,2.9,0,0,1-.221,1.132,2.491,2.491,0,0,1-.663.912,2.32,2.32,0,0,1-1.1.745,5.278,5.278,0,0,1-1.713.249,20.889,20.889,0,0,1-4.419-.58,22.007,22.007,0,0,1-5.027-1.8c-2.684.332-5.082.685-7.126,1.049a43.882,43.882,0,0,0-5.523,1.327l-.608.221A40.026,40.026,0,0,1,7.352,36.68C5.868,38.219,4.465,39,3.182,39Zm4.751-8.507-1.491.995a17.656,17.656,0,0,0-2.679,2.956A5.875,5.875,0,0,0,2.63,36.79a6.824,6.824,0,0,0,2.43-1.933A22.447,22.447,0,0,0,7.933,30.493ZM17.71,16.186c-.367,1.139-.823,2.347-1.354,3.591S15.2,22.344,14.506,23.7l-1.547,3.26.332-.111A48.95,48.95,0,0,1,19.008,25c1.815-.459,3.423-.821,4.779-1.077l-1.271-.995A15.772,15.772,0,0,1,19.865,20,22.414,22.414,0,0,1,17.71,16.186ZM30.8,24.8a.983.983,0,0,0-.359.055,1.241,1.241,0,0,0-.359.276,28.358,28.358,0,0,0,3.287,1.16,10.218,10.218,0,0,0,2.679.442l.608-.055h.111a1.838,1.838,0,0,0,.193-.111c.056-.037.084-.148.084-.331l-.276-.331a5.261,5.261,0,0,0-1.436-.663A15.452,15.452,0,0,0,30.8,24.8ZM17.434,1.989l-.221.331A7.249,7.249,0,0,0,16.854,5a16.123,16.123,0,0,0,.58,3.784l.166-.111.5-2.6.11-.5a9.054,9.054,0,0,0,.167-2.071A2.982,2.982,0,0,0,17.932,2.1Z" transform="translate(35 55)" fill="#ff7f7f"/>
</svg>
