<svg id="Photoshop" xmlns="http://www.w3.org/2000/svg" width="95.77" height="106.363" viewBox="0 0 95.77 106.363">
  <path id="Shape_Copy_3" data-name="Shape Copy 3" d="M81.769,106.363H0V0H56.216L81.769,25.324Z" transform="translate(14)" fill="#003c4a"/>
  <path id="Shape_Copy_2" data-name="Shape Copy 2" d="M24.275,24.058H0V0Z" transform="translate(68 4)" fill="#00cbff"/>
  <rect id="Rectangle_5_Copy_6" data-name="Rectangle 5 Copy 6" width="55" height="28" rx="4" transform="translate(0 16)" fill="#002c36"/>
  <path id="PS" d="M15.819,13.148a6.575,6.575,0,0,1-2.69-.54,4.279,4.279,0,0,1-1.849-1.481,3.807,3.807,0,0,1-.637-2.18h2.645a1.961,1.961,0,0,0,.636,1.587,2.909,2.909,0,0,0,1.9.532,2.476,2.476,0,0,0,1.468-.383,1.249,1.249,0,0,0,.526-1.067,1.36,1.36,0,0,0-.526-1.148,6.939,6.939,0,0,0-1.9-.843,13.509,13.509,0,0,1-2.171-.875,3.56,3.56,0,0,1-2.18-3.173,3.1,3.1,0,0,1,.585-1.85A3.818,3.818,0,0,1,13.3.457,6.336,6.336,0,0,1,15.757,0,5.774,5.774,0,0,1,18.2.5a3.917,3.917,0,0,1,1.666,1.4,3.691,3.691,0,0,1,.593,2.057H17.823a1.732,1.732,0,0,0-.554-1.367A2.288,2.288,0,0,0,15.713,2.1a2.44,2.44,0,0,0-1.5.409,1.293,1.293,0,0,0-.536,1.076A1.239,1.239,0,0,0,14.3,4.631a7.115,7.115,0,0,0,1.85.791A8.028,8.028,0,0,1,19.431,7.1,3.356,3.356,0,0,1,20.46,9.6,3.093,3.093,0,0,1,19.2,12.2,5.53,5.53,0,0,1,15.819,13.148ZM2.637,12.973H0V.175H4.992A5.805,5.805,0,0,1,7.528.7,3.9,3.9,0,0,1,9.211,2.2a4.194,4.194,0,0,1,.59,2.21A3.69,3.69,0,0,1,8.512,7.378,5.388,5.388,0,0,1,4.948,8.464H2.637v4.508Zm0-10.661V6.328H4.992a2.325,2.325,0,0,0,1.595-.492,1.8,1.8,0,0,0,.55-1.406,2.119,2.119,0,0,0-.554-1.521,2.078,2.078,0,0,0-1.529-.6Z" transform="translate(17.143 24.027)" fill="#00cbff"/>
  <path id="_" data-name="" d="M27.984,4.008V2A1.936,1.936,0,0,0,27.4.58,1.936,1.936,0,0,0,25.98,0H1.969A1.9,1.9,0,0,0,.58.58,1.936,1.936,0,0,0,0,2v7.98a1.936,1.936,0,0,0,.58,1.424,1.9,1.9,0,0,0,1.389.58H25.98a1.981,1.981,0,0,0,2-2v-2h2V16h-20V38a1.953,1.953,0,0,0,.58,1.406,1.907,1.907,0,0,0,1.424.6H16a2.042,2.042,0,0,0,2-2V20H34v-16Z" transform="translate(39 52)" fill="#00cbff"/>
</svg>
