<svg id="SVG_File" data-name="SVG File" xmlns="http://www.w3.org/2000/svg" width="95.77" height="106.363" viewBox="0 0 95.77 106.363">
  <path id="Shape_Copy_18" data-name="Shape Copy 18" d="M81.769,106.363H0V0H56.216L81.769,25.324Z" transform="translate(14)" fill="#d07012"/>
  <path id="Shape_Copy_16" data-name="Shape Copy 16" d="M24.275,24.058H0V0Z" transform="translate(68 4)" fill="#ffad5d"/>
  <rect id="Rectangle_5_Copy_20" data-name="Rectangle 5 Copy 20" width="55" height="28" rx="4" transform="translate(0 16)" fill="#a75402"/>
  <path id="SVG" d="M27.621,13.148a5.738,5.738,0,0,1-2.913-.724,4.853,4.853,0,0,1-1.933-2.105,7.437,7.437,0,0,1-.7-3.244V6.206a7.909,7.909,0,0,1,.646-3.318A4.807,4.807,0,0,1,24.584.742,5.394,5.394,0,0,1,27.437,0,5.367,5.367,0,0,1,31,1.085a4.659,4.659,0,0,1,1.521,3.16H29.95a2.558,2.558,0,0,0-.778-1.608,2.494,2.494,0,0,0-1.657-.51,2.349,2.349,0,0,0-2.048,1.011,5.335,5.335,0,0,0-.712,3.006v.817A5.083,5.083,0,0,0,25.52,10a2.631,2.631,0,0,0,2.242,1.029A2.94,2.94,0,0,0,29.88,10.4V8.192h-2.4V6.249h5.036v5.107A4.6,4.6,0,0,1,30.5,12.678,8.48,8.48,0,0,1,27.621,13.148Zm-22.444,0a6.566,6.566,0,0,1-2.689-.54,4.277,4.277,0,0,1-1.85-1.481A3.807,3.807,0,0,1,0,8.947H2.645a1.961,1.961,0,0,0,.636,1.587,2.909,2.909,0,0,0,1.9.532,2.476,2.476,0,0,0,1.468-.383,1.249,1.249,0,0,0,.527-1.067,1.36,1.36,0,0,0-.527-1.148,6.939,6.939,0,0,0-1.9-.843A13.578,13.578,0,0,1,2.575,6.75,3.561,3.561,0,0,1,.4,3.577,3.1,3.1,0,0,1,.98,1.727,3.828,3.828,0,0,1,2.659.457,6.345,6.345,0,0,1,5.116,0,5.772,5.772,0,0,1,7.558.5,3.906,3.906,0,0,1,9.224,1.9a3.691,3.691,0,0,1,.593,2.057H7.181a1.732,1.732,0,0,0-.554-1.367A2.286,2.286,0,0,0,5.072,2.1a2.441,2.441,0,0,0-1.5.409,1.3,1.3,0,0,0-.536,1.076A1.239,1.239,0,0,0,3.66,4.631a7.115,7.115,0,0,0,1.85.791A8.035,8.035,0,0,1,8.789,7.1,3.358,3.358,0,0,1,9.817,9.6,3.093,3.093,0,0,1,8.561,12.2,5.532,5.532,0,0,1,5.177,13.148Zm12.1-.175H14.527L10.088.175h2.927L15.9,9.8,18.8.175h2.936l-4.456,12.8Z" transform="translate(10.606 24.027)" fill="#ffad5d"/>
  <path id="_copy" data-name=" copy" d="M29.672,29.953h0l-5.694-5.694,9.351-9.281L23.977,5.625,29.672,0,44.648,14.977,29.673,29.952Zm-14.7,0h0L0,14.977,14.977,0l5.7,5.625L11.32,14.977l9.352,9.281-5.694,5.694Z" transform="translate(33 57)" fill="#ffad5d"/>
</svg>
