<svg id="URL" xmlns="http://www.w3.org/2000/svg" width="95.77" height="106.363" viewBox="0 0 95.77 106.363">
  <path id="Shape_Copy_133" data-name="Shape Copy 133" d="M81.769,106.363H0V0H56.216L81.769,25.324Z" transform="translate(14)" fill="#11907c"/>
  <path id="Shape_Copy_132" data-name="Shape Copy 132" d="M24.275,24.058H0V0Z" transform="translate(68 4)" fill="#37d2ba"/>
  <rect id="Rectangle_5_Copy_106" data-name="Rectangle 5 Copy 106" width="55" height="28" rx="4" transform="translate(0 16)" fill="#0d6254"/>
  <path id="URL-2" data-name="URL" d="M4.631,12.252A4.858,4.858,0,0,1,1.27,11.131,4.022,4.022,0,0,1,0,8.051V0H2.49V7.977a2.311,2.311,0,0,0,.569,1.731,2.19,2.19,0,0,0,1.572.544c1.394,0,2.112-.743,2.134-2.209V0h2.5V7.96A4.092,4.092,0,0,1,8.023,11.1,4.8,4.8,0,0,1,4.631,12.252Zm8.733-.165h-2.49V0h4.491a5.1,5.1,0,0,1,3.3.955,3.308,3.308,0,0,1,1.163,2.7A3.74,3.74,0,0,1,19.3,5.715a3.673,3.673,0,0,1-1.623,1.316l2.615,4.939v.115H17.614L15.348,7.662H13.364v4.424Zm0-10.07V5.645h2.009a2.063,2.063,0,0,0,1.453-.478,1.711,1.711,0,0,0,.515-1.315,1.835,1.835,0,0,0-.486-1.345,2.029,2.029,0,0,0-1.49-.49Zm15.7,10.069H21.29V0h2.49V10.085h5.288v2Z" transform="translate(12.963 23.914)" fill="#37d2ba"/>
  <path id="_" data-name="" d="M20,40.008a19.409,19.409,0,0,1-7.788-1.582,20.671,20.671,0,0,1-6.363-4.289,20.016,20.016,0,0,1-4.289-6.364A19.626,19.626,0,0,1,0,20a19.6,19.6,0,0,1,1.564-7.788A20.081,20.081,0,0,1,12.217,1.564,19.6,19.6,0,0,1,20,0a19.626,19.626,0,0,1,7.769,1.564,20.016,20.016,0,0,1,6.364,4.289,20.671,20.671,0,0,1,4.289,6.363,19.91,19.91,0,0,1,0,15.557A20.065,20.065,0,0,1,27.773,38.426,19.438,19.438,0,0,1,20,40.008ZM4.43,16.418a13.918,13.918,0,0,0-.317,1.741A15.889,15.889,0,0,0,4.008,20a15.7,15.7,0,0,0,1.073,5.782A16.058,16.058,0,0,0,18,35.86V31.992a4.021,4.021,0,0,1-4.008-4.008v-2ZM11.988,16V20H23.977a1.979,1.979,0,0,1,2,2v5.977h2a3.823,3.823,0,0,1,2.372.791,4.014,4.014,0,0,1,1.424,1.986,15.274,15.274,0,0,0,1.759-2.285,15.972,15.972,0,0,0,1.318-2.6,16.647,16.647,0,0,0,.844-2.848A15.3,15.3,0,0,0,36,20a15.755,15.755,0,0,0-2.812-9.053,16.87,16.87,0,0,0-3.164-3.41A15.277,15.277,0,0,0,25.98,5.168v.809A3.875,3.875,0,0,1,24.8,8.807a3.836,3.836,0,0,1-2.8,1.178H18v4.008a2.041,2.041,0,0,1-2,2Z" transform="translate(35 52)" fill="#37d2ba"/>
</svg>
