<svg id="VCF_File" data-name="VCF File" xmlns="http://www.w3.org/2000/svg" width="95.77" height="106.363" viewBox="0 0 95.77 106.363">
  <path id="Shape_Copy_356" data-name="Shape Copy 356" d="M81.769,106.363H0V0H56.216L81.769,25.324Z" transform="translate(14)" fill="#403534"/>
  <path id="Shape_Copy_355" data-name="Shape Copy 355" d="M24.275,24.058H0V0Z" transform="translate(68 4)" fill="#e5beba"/>
  <rect id="Rectangle_5_Copy_294" data-name="Rectangle 5 Copy 294" width="55" height="28" rx="4" transform="translate(0 16)" fill="#2f2726"/>
  <path id="VCF" d="M16.22,12.418a4.568,4.568,0,0,1-3.657-1.565,6.444,6.444,0,0,1-1.333-4.3V5.819a7.278,7.278,0,0,1,.615-3.071A4.616,4.616,0,0,1,13.6.71,4.935,4.935,0,0,1,16.252,0a4.95,4.95,0,0,1,3.371,1.12A4.618,4.618,0,0,1,21.1,4.267H18.61a2.535,2.535,0,0,0-.652-1.7,2.423,2.423,0,0,0-1.706-.527,2.124,2.124,0,0,0-1.863.892A5.031,5.031,0,0,0,13.754,5.7v.913a5.373,5.373,0,0,0,.594,2.864,2.084,2.084,0,0,0,1.872.9,2.466,2.466,0,0,0,1.722-.527,2.387,2.387,0,0,0,.652-1.631h2.49a4.294,4.294,0,0,1-1.44,3.072A5.079,5.079,0,0,1,16.22,12.418Zm8.557-.167h-2.49V.166h7.87V2.183H24.777V5.3h4.782V7.313H24.777v4.937Zm-17.987,0h-2.6L0,.166H2.764l2.723,9.09L8.226.166H11L6.79,12.251Z" transform="translate(11.058 23.748)" fill="#e5beba"/>
  <path id="_" data-name="" d="M44.015,36H4.008a3.854,3.854,0,0,1-2.794-1.213A3.854,3.854,0,0,1,0,31.992V3.973A3.816,3.816,0,0,1,1.213,1.213,3.854,3.854,0,0,1,4.008,0H44.015a3.82,3.82,0,0,1,2.76,1.213,3.818,3.818,0,0,1,1.212,2.759v28.02A4.151,4.151,0,0,1,44.015,36ZM16,21.8a18.9,18.9,0,0,0-3.568.4,20.2,20.2,0,0,0-3.938,1.2A11.619,11.619,0,0,0,5.308,25.33a3.459,3.459,0,0,0-1.3,2.654v2H27.985v-2a3.458,3.458,0,0,0-1.3-2.654A11.6,11.6,0,0,0,23.5,23.4a20.2,20.2,0,0,0-3.937-1.2A18.9,18.9,0,0,0,16,21.8Zm0-15.82a6,6,0,0,0-6.011,6.011A6,6,0,0,0,16,18a6,6,0,0,0,6.012-6.012A6,6,0,0,0,16,5.977Zm11.989,8.015v2H42.012v-2Zm0-4.008v2H44.015v-2Zm0-4.008v2H44.015v-2Z" transform="translate(31 55.387)" fill="#e5beba"/>
</svg>
