<svg id="XLS" xmlns="http://www.w3.org/2000/svg" width="95.77" height="106.363" viewBox="0 0 95.77 106.363">
  <path id="Shape_Copy_386" data-name="Shape Copy 386" d="M81.769,106.363H0V0H56.216L81.769,25.324Z" transform="translate(14)" fill="#79a92e"/>
  <path id="Shape_Copy_385" data-name="Shape Copy 385" d="M24.275,24.058H0V0Z" transform="translate(68 4)" fill="#99cd48"/>
  <rect id="Rectangle_5_Copy_318" data-name="Rectangle 5 Copy 318" width="55" height="28" rx="4" transform="translate(0 16)" fill="#658c28"/>
  <path id="XLS-2" data-name="XLS" d="M25.907,13.148a6.566,6.566,0,0,1-2.689-.54,4.277,4.277,0,0,1-1.85-1.481,3.807,3.807,0,0,1-.637-2.18h2.646a1.961,1.961,0,0,0,.636,1.587,2.907,2.907,0,0,0,1.9.532,2.476,2.476,0,0,0,1.468-.383A1.247,1.247,0,0,0,27.9,9.616a1.358,1.358,0,0,0-.527-1.148,6.943,6.943,0,0,0-1.9-.843,13.56,13.56,0,0,1-2.172-.875,3.56,3.56,0,0,1-2.179-3.173,3.1,3.1,0,0,1,.584-1.85A3.828,3.828,0,0,1,23.389.457,6.345,6.345,0,0,1,25.846,0,5.78,5.78,0,0,1,28.29.5a3.909,3.909,0,0,1,1.665,1.4,3.684,3.684,0,0,1,.593,2.057H27.912a1.73,1.73,0,0,0-.554-1.367A2.286,2.286,0,0,0,25.8,2.1a2.441,2.441,0,0,0-1.5.409,1.3,1.3,0,0,0-.536,1.076,1.238,1.238,0,0,0,.629,1.046,7.092,7.092,0,0,0,1.85.791A8.035,8.035,0,0,1,29.52,7.1a3.358,3.358,0,0,1,1.028,2.5A3.093,3.093,0,0,1,29.291,12.2,5.532,5.532,0,0,1,25.907,13.148Zm-22.84-.175H0L3.823,6.521.1.175H3.129l2.4,4.413L7.928.175H10.96L7.233,6.521l3.822,6.45-3.066,0L5.529,8.491,3.067,12.973Zm17.12,0H11.952V.175h2.636V10.855h5.6v2.117Z" transform="translate(11.193 24.027)" fill="#99cd48"/>
  <path id="_copy_3" data-name=" copy 3" d="M35.563,0H21.375V7.125h3.5l-7.062,5.938L10.688,7.125H14.25V0H0V7.125H3.563L14.25,16,3.563,24.875H0V32H14.25V24.875H10.688l7.125-5.937,7.063,5.938h-3.5V32H35.563V24.875H32L21.375,16,32,7.125h3.563Z" transform="translate(38 57)" fill="#99cd48"/>
</svg>
