<svg id="XLSM" xmlns="http://www.w3.org/2000/svg" width="95.77" height="106.363" viewBox="0 0 95.77 106.363">
  <path id="Shape_Copy_388" data-name="Shape Copy 388" d="M81.769,106.363H0V0H56.216L81.769,25.324Z" transform="translate(14)" fill="#79a92e"/>
  <path id="Shape_Copy_387" data-name="Shape Copy 387" d="M24.275,24.058H0V0Z" transform="translate(68 4)" fill="#99cd48"/>
  <rect id="Rectangle_5_Copy_319" data-name="Rectangle 5 Copy 319" width="55" height="28" rx="4" transform="translate(0 16)" fill="#658c28"/>
  <path id="XLSM-2" data-name="XLSM" d="M24.421,12.418a6.206,6.206,0,0,1-2.541-.51,4.047,4.047,0,0,1-1.747-1.4,3.593,3.593,0,0,1-.6-2.058h2.5a1.851,1.851,0,0,0,.6,1.5,2.748,2.748,0,0,0,1.791.5,2.339,2.339,0,0,0,1.386-.361,1.181,1.181,0,0,0,.5-1.009A1.284,1.284,0,0,0,25.807,8a6.6,6.6,0,0,0-1.793-.8,12.672,12.672,0,0,1-2.051-.826,3.364,3.364,0,0,1-2.058-3,2.933,2.933,0,0,1,.553-1.748,3.609,3.609,0,0,1,1.585-1.2A5.994,5.994,0,0,1,24.362,0,5.461,5.461,0,0,1,26.67.469a3.7,3.7,0,0,1,1.573,1.324,3.483,3.483,0,0,1,.56,1.942h-2.49a1.634,1.634,0,0,0-.523-1.291,2.158,2.158,0,0,0-1.469-.461A2.306,2.306,0,0,0,22.9,2.37a1.223,1.223,0,0,0-.507,1.017,1.173,1.173,0,0,0,.594.988,6.753,6.753,0,0,0,1.747.747,7.576,7.576,0,0,1,3.1,1.585A3.17,3.17,0,0,1,28.8,9.065a2.919,2.919,0,0,1-1.187,2.461A5.217,5.217,0,0,1,24.421,12.418Zm8.126-.166h-2.49V.166H33.31l3.1,8.766L39.5.166h3.271V12.251h-2.5v-3.3l.249-5.7-3.263,9.006h-1.71l-3.254-9,.249,5.694v3.3Zm-29.65,0H0L3.611,6.16.091.166H2.955L5.221,4.333,7.487.166h2.864L6.832,6.16l3.61,6.091-2.9,0L5.221,8.019,2.9,12.252Zm16.144,0H11.264V.166h2.49V10.252h5.288v2Z" transform="translate(6 24)" fill="#99cd48"/>
  <path id="_copy_4" data-name=" copy 4" d="M35.563,0H21.375V7.125h3.5l-7.062,5.938L10.688,7.125H14.25V0H0V7.125H3.563L14.25,16,3.563,24.875H0V32H14.25V24.875H10.688l7.125-5.937,7.063,5.938h-3.5V32H35.563V24.875H32L21.375,16,32,7.125h3.563Z" transform="translate(38 57)" fill="#99cd48"/>
</svg>
