<svg xmlns="http://www.w3.org/2000/svg" xmlns:xlink="http://www.w3.org/1999/xlink" width="98.77" height="112.363" viewBox="0 0 98.77 112.363">
  <defs>
    <filter id="Shape_Copy_397" x="11" y="0" width="87.77" height="112.363" filterUnits="userSpaceOnUse">
      <feOffset input="SourceAlpha"/>
      <feGaussianBlur stdDeviation="1" result="blur"/>
      <feFlood flood-opacity="0.502"/>
      <feComposite operator="in" in2="blur"/>
      <feComposite in="SourceGraphic"/>
    </filter>
  </defs>
  <g id="ZIP_File" data-name="ZIP File" transform="translate(0 3)">
    <g transform="matrix(1, 0, 0, 1, 0, -3)" filter="url(#Shape_Copy_397)">
      <path id="Shape_Copy_397-2" data-name="Shape Copy 397" d="M81.769,106.363H0V0H56.216L81.769,25.324Z" transform="translate(14 3)" fill="#fff"/>
    </g>
    <path id="Shape_Copy_396" data-name="Shape Copy 396" d="M24.275,24.058H0V0Z" transform="translate(68 4)" fill="#585858"/>
    <rect id="Rectangle_5_Copy_325" data-name="Rectangle 5 Copy 325" width="55" height="28" rx="4" transform="translate(0 16)" fill="#585858"/>
    <path id="ZIP" d="M17.357,12.086h-2.49V0H19.58a5.477,5.477,0,0,1,2.395.5,3.685,3.685,0,0,1,1.59,1.416A3.962,3.962,0,0,1,24.122,4a3.483,3.483,0,0,1-1.217,2.8,5.083,5.083,0,0,1-3.366,1.025H17.357v4.258Zm0-10.069V5.81H19.58a2.2,2.2,0,0,0,1.507-.464,1.7,1.7,0,0,0,.519-1.328,2,2,0,0,0-.523-1.436,1.969,1.969,0,0,0-1.444-.564ZM12.991,12.086H10.5V0h2.49V12.085Zm-3.785,0H0V10.625L5.977,2.017H.008V0H9.073V1.427l-5.96,8.658H9.205v2Z" transform="translate(14.606 23.914)" fill="#fff"/>
    <path id="Shape" d="M0,0H7V3H0Z" transform="translate(52 71)" fill="#585858"/>
    <path id="Shape-2" data-name="Shape" d="M0,0H7V3H0Z" transform="translate(52 59)" fill="#585858"/>
    <path id="Shape-3" data-name="Shape" d="M0,0H7V3H0Z" transform="translate(52 49)" fill="#585858"/>
    <path id="Shape-4" data-name="Shape" d="M7,19c-3.86,0-7-2.841-7-6.333A15.465,15.465,0,0,1,1.486,7.581C2.43,5.253,3.5,2.615,3.5,0h7c0,2.615,1.07,5.253,2.014,7.581A15.466,15.466,0,0,1,14,12.667C14,16.159,10.86,19,7,19ZM7,9.5a3.35,3.35,0,0,0-3.5,3.166A3.35,3.35,0,0,0,7,15.834a3.35,3.35,0,0,0,3.5-3.167A3.35,3.35,0,0,0,7,9.5Z" transform="translate(48 80)" fill="#585858"/>
  </g>
</svg>
