<svg id="EPS_file" data-name="EPS file" xmlns="http://www.w3.org/2000/svg" width="95.77" height="106.363" viewBox="0 0 95.77 106.363">
  <path id="Shape_Copy_14" data-name="Shape Copy 14" d="M81.769,106.363H0V0H56.216L81.769,25.324Z" transform="translate(14)" fill="#d07012"/>
  <path id="Shape_Copy_13" data-name="Shape Copy 13" d="M24.275,24.058H0V0Z" transform="translate(68 4)" fill="#ffad5d"/>
  <rect id="Rectangle_5_Copy_12" data-name="Rectangle 5 Copy 12" width="55" height="28" rx="4" transform="translate(0 16)" fill="#a75402"/>
  <path id="EPS" d="M25.512,13.148a6.575,6.575,0,0,1-2.69-.54,4.279,4.279,0,0,1-1.85-1.481,3.807,3.807,0,0,1-.637-2.18h2.645a1.961,1.961,0,0,0,.636,1.587,2.909,2.909,0,0,0,1.9.532,2.471,2.471,0,0,0,1.467-.383,1.247,1.247,0,0,0,.527-1.067,1.358,1.358,0,0,0-.527-1.148,6.916,6.916,0,0,0-1.9-.843A13.509,13.509,0,0,1,22.91,6.75a3.56,3.56,0,0,1-2.18-3.173,3.1,3.1,0,0,1,.585-1.85A3.818,3.818,0,0,1,22.994.457,6.336,6.336,0,0,1,25.45,0a5.774,5.774,0,0,1,2.443.5A3.917,3.917,0,0,1,29.56,1.9a3.691,3.691,0,0,1,.593,2.057H27.516a1.732,1.732,0,0,0-.554-1.367A2.288,2.288,0,0,0,25.406,2.1a2.44,2.44,0,0,0-1.5.409,1.293,1.293,0,0,0-.536,1.076A1.239,1.239,0,0,0,24,4.631a7.115,7.115,0,0,0,1.85.791A8.028,8.028,0,0,1,29.124,7.1a3.356,3.356,0,0,1,1.029,2.5A3.093,3.093,0,0,1,28.9,12.2,5.53,5.53,0,0,1,25.512,13.148ZM12.33,12.973H9.693V.175h4.992A5.805,5.805,0,0,1,17.221.7,3.9,3.9,0,0,1,18.9,2.2a4.194,4.194,0,0,1,.59,2.21,3.69,3.69,0,0,1-1.288,2.966,5.388,5.388,0,0,1-3.564,1.085H12.33v4.508Zm0-10.661V6.328h2.355a2.325,2.325,0,0,0,1.595-.492,1.8,1.8,0,0,0,.55-1.406,2.119,2.119,0,0,0-.554-1.521,2.078,2.078,0,0,0-1.529-.6ZM8.578,12.973H0V.175H8.561V2.311H2.637v3.05H7.7V7.427H2.637v3.428H8.578v2.117Z" transform="translate(12.143 23.027)" fill="#ffad5d"/>
  <path id="_copy" data-name=" copy" d="M14.063,41.977H10.055l-.07-1.969a29.126,29.126,0,0,1,.281-4.061,32.187,32.187,0,0,1,.791-3.866A29.931,29.931,0,0,1,13.992,25l-.914-.668L5.7,31.676a3.285,3.285,0,0,1,.211.651,3.11,3.11,0,0,1,.071.651,2.96,2.96,0,0,1-.861,2.144A2.873,2.873,0,0,1,2.988,36a2.889,2.889,0,0,1-2.109-.879A2.93,2.93,0,0,1,0,32.977a2.89,2.89,0,0,1,.879-2.11,2.889,2.889,0,0,1,2.109-.879,3.336,3.336,0,0,1,.686.07,1.927,1.927,0,0,1,.616.247l7.383-7.418a7.31,7.31,0,0,1-1.248-2.25A8.035,8.035,0,0,1,9.985,18a7.768,7.768,0,0,1,.633-3.111,8.1,8.1,0,0,1,4.271-4.271A7.768,7.768,0,0,1,18,9.985a8.035,8.035,0,0,1,2.637.439,7.308,7.308,0,0,1,2.25,1.248L30.3,4.289a1.928,1.928,0,0,1-.247-.616,3.336,3.336,0,0,1-.07-.686A2.889,2.889,0,0,1,30.867.879,2.89,2.89,0,0,1,32.977,0a2.93,2.93,0,0,1,2.144.879A2.889,2.889,0,0,1,36,2.988a2.873,2.873,0,0,1-.879,2.128,2.96,2.96,0,0,1-2.144.861,3.11,3.11,0,0,1-.651-.071,3.283,3.283,0,0,1-.651-.211l-7.348,7.383.668.914a29.931,29.931,0,0,1,7.085-2.936,32.187,32.187,0,0,1,3.866-.791,29.126,29.126,0,0,1,4.061-.281l1.969.07v4.008l-1.969-.07a25.913,25.913,0,0,0-3.814.281,28.144,28.144,0,0,0-3.639.791,23.563,23.563,0,0,0-3.41,1.283A29.5,29.5,0,0,0,25.98,18.07a7.848,7.848,0,0,1-.615,3.094,7.845,7.845,0,0,1-4.2,4.2,7.847,7.847,0,0,1-3.094.615,29.5,29.5,0,0,0-1.723,3.164,23.564,23.564,0,0,0-1.283,3.41,28.144,28.144,0,0,0-.791,3.639,25.912,25.912,0,0,0-.281,3.814l.07,1.968ZM18,13.992a4,4,0,0,0-2.831,6.838A4,4,0,1,0,20.83,15.17,3.879,3.879,0,0,0,18,13.992Z" transform="translate(34 51)" fill="#ffad5d"/>
</svg>
