<svg id="Illustrator" xmlns="http://www.w3.org/2000/svg" width="95.77" height="106.363" viewBox="0 0 95.77 106.363">
  <path id="Shape_Copy_6" data-name="Shape Copy 6" d="M81.769,106.363H0V0H56.216L81.769,25.324Z" transform="translate(14)" fill="#d07012"/>
  <path id="Shape_Copy_5" data-name="Shape Copy 5" d="M24.275,24.058H0V0Z" transform="translate(68 4)" fill="#ffad5d"/>
  <rect id="Rectangle_5_Copy_8" data-name="Rectangle 5 Copy 8" width="55" height="28" rx="4" transform="translate(0 16)" fill="#a75402"/>
  <path id="Ai" d="M2.8,13.281H0L4.764.483H7.207L12,13.279h-2.8l-.887-2.637H3.683L2.8,13.28ZM5.985,3.718l-1.59,4.79h3.2L5.985,3.718h0Zm9.289,9.563H12.725V3.77h2.549v9.509ZM14,2.628a1.448,1.448,0,0,1-1.032-.369,1.254,1.254,0,0,1-.392-.949,1.258,1.258,0,0,1,.383-.94A1.443,1.443,0,0,1,14,0a1.445,1.445,0,0,1,1.037.369,1.249,1.249,0,0,1,.387.94,1.256,1.256,0,0,1-.391.949A1.452,1.452,0,0,1,14,2.628Z" transform="translate(19.062 22.72)" fill="#ffad5d"/>
  <path id="_" data-name="" d="M14.063,41.977H10.055l-.07-1.969a29.126,29.126,0,0,1,.281-4.061,32.187,32.187,0,0,1,.791-3.866A29.931,29.931,0,0,1,13.992,25l-.914-.668L5.7,31.676a3.285,3.285,0,0,1,.211.651,3.11,3.11,0,0,1,.071.651,2.96,2.96,0,0,1-.861,2.144A2.873,2.873,0,0,1,2.988,36a2.889,2.889,0,0,1-2.109-.879A2.93,2.93,0,0,1,0,32.977a2.89,2.89,0,0,1,.879-2.11,2.889,2.889,0,0,1,2.109-.879,3.336,3.336,0,0,1,.686.07,1.927,1.927,0,0,1,.616.247l7.383-7.418a7.31,7.31,0,0,1-1.248-2.25A8.035,8.035,0,0,1,9.985,18a7.768,7.768,0,0,1,.633-3.111,8.1,8.1,0,0,1,4.271-4.271A7.768,7.768,0,0,1,18,9.985a8.035,8.035,0,0,1,2.637.439,7.308,7.308,0,0,1,2.25,1.248L30.3,4.289a1.928,1.928,0,0,1-.247-.616,3.336,3.336,0,0,1-.07-.686A2.889,2.889,0,0,1,30.867.879,2.89,2.89,0,0,1,32.977,0a2.93,2.93,0,0,1,2.144.879A2.889,2.889,0,0,1,36,2.988a2.873,2.873,0,0,1-.879,2.128,2.96,2.96,0,0,1-2.144.861,3.11,3.11,0,0,1-.651-.071,3.283,3.283,0,0,1-.651-.211l-7.348,7.383.668.914a29.931,29.931,0,0,1,7.085-2.936,32.187,32.187,0,0,1,3.866-.791,29.126,29.126,0,0,1,4.061-.281l1.969.07v4.008l-1.969-.07a25.913,25.913,0,0,0-3.814.281,28.144,28.144,0,0,0-3.639.791,23.563,23.563,0,0,0-3.41,1.283A29.5,29.5,0,0,0,25.98,18.07a7.848,7.848,0,0,1-.615,3.094,7.845,7.845,0,0,1-4.2,4.2,7.847,7.847,0,0,1-3.094.615,29.5,29.5,0,0,0-1.723,3.164,23.564,23.564,0,0,0-1.283,3.41,28.144,28.144,0,0,0-.791,3.639,25.912,25.912,0,0,0-.281,3.814l.07,1.968ZM18,13.992a4,4,0,0,0-2.831,6.838A4,4,0,1,0,20.83,15.17,3.879,3.879,0,0,0,18,13.992Z" transform="translate(34 51)" fill="#ffad5d"/>
</svg>
