<svg id="XML" xmlns="http://www.w3.org/2000/svg" width="95.77" height="106.363" viewBox="0 0 95.77 106.363">
  <path id="Shape_Copy_392" data-name="Shape Copy 392" d="M81.769,106.363H0V0H56.216L81.769,25.324Z" transform="translate(14)" fill="#11907c"/>
  <path id="Shape_Copy_391" data-name="Shape Copy 391" d="M24.275,24.058H0V0Z" transform="translate(68 4)" fill="#37d2ba"/>
  <rect id="Rectangle_5_Copy_321" data-name="Rectangle 5 Copy 321" width="55" height="28" rx="4" transform="translate(0 16)" fill="#0d6254"/>
  <path id="XML-2" data-name="XML" d="M13.754,12.087h-2.49V0h3.254l3.1,8.766L20.71,0h3.271V12.085h-2.5v-3.3l.249-5.7-3.263,9.006h-1.71l-3.254-9,.248,5.694v3.3Zm-10.857,0H0L3.611,5.993.091,0H2.955L5.221,4.167,7.487,0h2.864L6.832,5.993l3.61,6.091-2.9,0L5.221,7.852,2.9,12.086Zm30.6,0H25.724V0h2.489V10.085H33.5v2Z" transform="translate(11.183 23.914)" fill="#37d2ba"/>
  <path id="_copy_3" data-name=" copy 3" d="M29.672,29.953h0l-5.694-5.694,9.351-9.281L23.977,5.625,29.672,0,44.648,14.977,29.673,29.952Zm-14.7,0h0L0,14.977,14.977,0l5.7,5.625L11.32,14.977l9.352,9.281-5.694,5.694Z" transform="translate(33 57)" fill="#37d2ba"/>
</svg>
